<?xml version="1.0" encoding="UTF-8"?>
<svg width="106.08pt" height="106.8pt" version="1.1" viewBox="0 0 106.08 106.8" xmlns="http://www.w3.org/2000/svg" xmlns:cc="http://creativecommons.org/ns#" xmlns:dc="http://purl.org/dc/elements/1.1/" xmlns:rdf="http://www.w3.org/1999/02/22-rdf-syntax-ns#">
 <metadata>
  <rdf:RDF>
   <cc:Work rdf:about="">
    <dc:format>image/svg+xml</dc:format>
    <dc:type rdf:resource="http://purl.org/dc/dcmitype/StillImage"/>
    <dc:title/>
   </cc:Work>
  </rdf:RDF>
 </metadata>
 <path d="m65.418 0.06c-0.0742 0-0.1375 0.0547-0.1375 0.125v4.7891c0 0.0703 0.0633 0.125 0.1375 0.125h3.0891c0.0742 0 0.13282-0.0547 0.13282-0.125v-4.7891c0-0.0703-0.0586-0.125-0.13282-0.125h-3.0891zm21.539 0c-0.0742 0-0.13281 0.0547-0.13281 0.125v4.7891c0 0.0703 0.0586 0.125 0.13281 0.125h3.0891c0.0742 0 0.13751-0.0547 0.13751-0.125v-4.7891c0-0.0703-0.0633-0.125-0.13751-0.125h-3.0891zm-1.6344 6.7781 2e-3 3e-3v2.3297l-0.73281 0.73125a0.30003 0.30003 0 0 0-0.0797 0.1 0.30003 0.30003 0 0 0-9e-3 0.0218 0.30003 0.30003 0 0 0-8e-3 0.0187 0.30003 0.30003 0 0 0-3e-3 9e-3 0.30003 0.30003 0 0 0-2e-3 6e-3 0.30003 0.30003 0 0 0-9e-3 0.11251v1.1703h-0.39531c-0.0781 0-0.14376 0.0586-0.14376 0.13281v4.1719c0 0.0742 0.0656 0.13282 0.14376 0.1328h0.39218l-3.2375 3.2375a0.30003 0.30003 0 0 0-0.0953 0.12343 0.30003 0.30003 0 0 0-3e-3 5e-3 0.30003 0.30003 0 0 0-2e-3 6e-3 0.30003 0.30003 0 0 0-8e-3 0.0234 0.30003 0.30003 0 0 0-3e-3 0.011 0.30003 0.30003 0 0 0-8e-3 0.11718v29.594l-18.242 18.244h-2.2234c-8e-4 -3e-5 -2e-3 -3e-3 -3e-3 -3e-3h-3.4609c-0.0703 0-0.12969 0.0633-0.12969 0.1375v0.32812c0 0.0781 0.0594 0.13594 0.12969 0.13594h3.4609 2.3125a0.30003 0.30003 0 0 0 0.12656-0.0125 0.30003 0.30003 0 0 0 8e-3 -2e-3 0.30003 0.30003 0 0 0 0.0218-8e-3 0.30003 0.30003 0 0 0 0.12656-0.1l18.347-18.347a0.30003 0.30003 0 0 0 0.0781-0.0828 0.30003 0.30003 0 0 0 0-2e-3 0.30003 0.30003 0 0 0 3e-3 -3e-3 0.30003 0.30003 0 0 0 0.0125-0.0218 0.30003 0.30003 0 0 0 3e-3 -5e-3 0.30003 0.30003 0 0 0 9e-3 -0.0219 0.30003 0.30003 0 0 0 2e-3 -6e-3 0.30003 0.30003 0 0 0 8e-3 -0.0234 0.30003 0.30003 0 0 0 0.011-0.12812v-29.595l3.2328-3.2344a0.30003 0.30003 0 0 0 0.0782-0.0828 0.30003 0.30003 0 0 0 3e-3 -3e-3 0.30003 0.30003 0 0 0 0.0125-0.0219 0.30003 0.30003 0 0 0 3e-3 -5e-3 0.30003 0.30003 0 0 0 9e-3 -0.0234 0.30003 0.30003 0 0 0 0.0187-0.15469v-0.0797h0.4c0.0781 0 0.14062-0.0586 0.14062-0.13282v-4.1719c0-0.0742-0.0625-0.13281-0.14062-0.13281h-0.4v-1.0781l0.66562-0.66407h2.3359v-2.7578h-2.7578zm-9.4219 2e-3 2e-3 2e-3c-0.76172 0-1.3797 0.61796-1.3797 1.3797s0.61797 1.3781 1.3797 1.3781c0.042 0 0.0809-9e-3 0.12188-0.0125v1.7547h-0.4c-0.0781 0-0.14375 0.0586-0.14375 0.13281v4.1719c0 0.0742 0.0657 0.13282 0.14375 0.13281h0.4v0.90781a0.30003 0.30003 0 0 0 0.0125 0.14844 0.30003 0.30003 0 0 0 9e-3 0.0218 0.30003 0.30003 0 0 0 5e-3 0.011 0.30003 0.30003 0 0 0 0.0922 0.11563l1.5609 1.5609v28.672l-16.505 16.505h-0.54688-3.4609c-0.0703 0-0.12969 0.0586-0.12969 0.13281v0.33126c0 0.0742 0.0594 0.13749 0.12969 0.13749h3.4609c8e-4 0 2e-3 -2e-3 3e-3 -2e-3h0.63125a0.30003 0.30003 0 0 0 0.125-0.0125 0.30003 0.30003 0 0 0 6e-3 -3e-3 0.30003 0.30003 0 0 0 5e-3 -2e-3 0.30003 0.30003 0 0 0 0.14219-0.10312l16.609-16.611a0.30003 0.30003 0 0 0 0.0937-0.10937 0.30003 0.30003 0 0 0 3e-3 -5e-3 0.30003 0.30003 0 0 0 0.0156-0.039 0.30003 0.30003 0 0 0 0.0156-0.13906v-28.847a0.30003 0.30003 0 0 0-0.0125-0.12188 0.30003 0.30003 0 0 0-2e-3 -6e-3 0.30003 0.30003 0 0 0-9e-3 -0.0218 0.30003 0.30003 0 0 0-3e-3 -6e-3 0.30003 0.30003 0 0 0-8e-3 -0.0203 0.30003 0.30003 0 0 0-3e-3 -6e-3 0.30003 0.30003 0 0 0-3e-3 -2e-3 0.30003 0.30003 0 0 0-0.0781-0.0906l-1.5609-1.5609v-0.8375h0.39531c0.0781 0 0.14375-0.0586 0.14375-0.13282v-4.1719c0-0.0742-0.0657-0.13281-0.14375-0.13281h-0.39531v-1.95c0.39265-0.24298 0.65625-0.67449 0.65625-1.1703 0-0.76172-0.6164-1.3797-1.3781-1.3797zm3.6031 0v2e-3c-0.76563 0-1.3828 0.61796-1.3828 1.3797 0 0.52082 0.29152 0.96852 0.71876 1.2031v1.9172h-0.39532c-0.0781 0-0.14375 0.0586-0.14375 0.1328v4.1719c0 0.0742 0.0657 0.13283 0.14375 0.13281h0.39532v31.977l-17.102 17.106h-1.086-3.4609c-0.0703 0-0.12969 0.0586-0.12969 0.13281v0.33125c0 0.0742 0.0594 0.13281 0.12969 0.13281h1.6797a0.30003 0.30003 0 0 0 0.05 3e-3h2.8844a0.30003 0.30003 0 0 0 0.175-0.0219 0.30003 0.30003 0 0 0 2e-3 0 0.30003 0.30003 0 0 0 0.0125-6e-3 0.30003 0.30003 0 0 0 0.0125-6e-3 0.30003 0.30003 0 0 0 2e-3 -2e-3 0.30003 0.30003 0 0 0 0.0234-0.0141 0.30003 0.30003 0 0 0 3e-3 -2e-3 0.30003 0.30003 0 0 0 0.0718-0.0672l17.216-17.219a0.30003 0.30003 0 0 0 0.0703-0.0766 0.30003 0.30003 0 0 0 0-3e-3 0.30003 0.30003 0 0 0 3e-3 -3e-3 0.30003 0.30003 0 0 0 0.0125-0.0219 0.30003 0.30003 0 0 0 3e-3 -5e-3 0.30003 0.30003 0 0 0 8e-3 -0.0219 0.30003 0.30003 0 0 0 0.0203-0.15625v-32.059h0.4c0.0781 0 0.14063-0.0586 0.14063-0.13281v-4.1719c0-0.0742-0.0625-0.13282-0.14063-0.13282h-0.4v-1.7484c0.0217 8e-4 0.0421 6e-3 0.0641 6e-3 0.76172 0 1.3781-0.61641 1.3781-1.3781s-0.6164-1.3797-1.3781-1.3797zm-10.802 2e-3c-0.76172 0-1.3781 0.61796-1.3781 1.3797s0.6164 1.3781 1.3781 1.3781 1.3797-0.6164 1.3797-1.3781-0.61797-1.3797-1.3797-1.3797zm3.5953 0c-0.76026 2e-3 -1.3766 0.61902-1.3766 1.3797 0 0.76172 0.61796 1.3781 1.3797 1.3781 0.2738 0 0.52623-0.081 0.74063-0.21718l0.1625 0.1625v1.7969h-0.4c-0.0781 0-0.14062 0.0586-0.14062 0.1328v4.1719c0 0.0742 0.0625 0.13283 0.14062 0.13281h0.4v0.0672a0.30003 0.30003 0 0 0 9e-3 0.1375 0.30003 0.30003 0 0 0 3e-3 9e-3 0.30003 0.30003 0 0 0 0 2e-3 0.30003 0.30003 0 0 0 8e-3 0.0234 0.30003 0.30003 0 0 0 8e-3 0.0156 0.30003 0.30003 0 0 0 6e-3 0.011 0.30003 0.30003 0 0 0 3e-3 5e-3 0.30003 0.30003 0 0 0 0.0125 0.0219 0.30003 0.30003 0 0 0 3e-3 3e-3 0.30003 0.30003 0 0 0 0.0687 0.0719l3.2375 3.2375v27.231l-15.966 15.966h-3.4062c-0.0703 0-0.12968 0.0617-0.12968 0.13594v0.32812c0 0.0742 0.0594 0.1375 0.12968 0.1375h3.4609l2e-3 -2e-3h0.0282a0.30003 0.30003 0 0 0 0.12657-0.0125 0.30003 0.30003 0 0 0 6e-3 -2e-3 0.30003 0.30003 0 0 0 6e-3 -3e-3 0.30003 0.30003 0 0 0 0.14219-0.10312l16.07-16.072a0.30003 0.30003 0 0 0 0.0937-0.10937 0.30003 0.30003 0 0 0 3e-3 -5e-3 0.30003 0.30003 0 0 0 0.0156-0.0375 0.30003 0.30003 0 0 0 0.0156-0.14063v-27.4a0.30003 0.30003 0 0 0-0.0125-0.12656 0.30003 0.30003 0 0 0-2e-3 -6e-3 0.30003 0.30003 0 0 0-8e-3 -0.0218 0.30003 0.30003 0 0 0-3e-3 -6e-3 0.30003 0.30003 0 0 0-0.011-0.0219 0.30003 0.30003 0 0 0-0.0875-0.10156l-3.2344-3.2344h0.39375c0.0781 0 0.14375-0.0586 0.14375-0.13282v-4.1719c0-0.0742-0.0657-0.13281-0.14375-0.13281h-0.39531v-1.8844a0.30003 0.30003 0 0 0-0.0125-0.12657 0.30003 0.30003 0 0 0-3e-3 -5e-3 0.30003 0.30003 0 0 0-0.0218-0.0484 0.30003 0.30003 0 0 0-3e-3 -6e-3 0.30003 0.30003 0 0 0-2e-3 -2e-3 0.30003 0.30003 0 0 0-0.0782-0.0906l-0.22032-0.21876c0.13643-0.21381 0.21876-0.46508 0.21876-0.73749 0-0.76067-0.61553-1.378-1.3797-1.3797h-3e-3zm10.802 0c-0.76099 8e-4 -1.3766 0.61849-1.3766 1.3797 0 0.27241 0.0809 0.52368 0.2172 0.7375l-0.16094 0.15938a0.30003 0.30003 0 0 0-0.0703 0.075 0.30003 0.30003 0 0 0 0 2e-3 0.30003 0.30003 0 0 0-2e-3 3e-3 0.30003 0.30003 0 0 0-3e-3 5e-3 0.30003 0.30003 0 0 0-0.0234 0.0469 0.30003 0.30003 0 0 0-3e-3 5e-3 0.30003 0.30003 0 0 0-0.0187 0.1625v1.9266h-0.39531c-0.0781 0-0.14375 0.0586-0.14375 0.13282v4.1719c0 0.0742 0.0657 0.13282 0.14375 0.13281h0.39531v0.83594l-1.5688 1.5688a0.30003 0.30003 0 0 0-0.0859 0.11406 0.30003 0.30003 0 0 0-5e-3 9e-3 0.30003 0.30003 0 0 0-2e-3 5e-3 0.30003 0.30003 0 0 0-8e-3 0.0234 0.30003 0.30003 0 0 0-3e-3 8e-3 0.30003 0.30003 0 0 0-8e-3 0.11094v29.841l-17.703 17.705h-3.3562a0.30003 0.30003 0 0 0-0.05 3e-3h-1.6797c-0.0703 0-0.12969 0.0586-0.12969 0.13282v0.33125c0 0.0742 0.0594 0.13281 0.12969 0.13281h3.4609 1.7125a0.30003 0.30003 0 0 0 0.125-0.0125 0.30003 0.30003 0 0 0 8e-3 -2e-3 0.30003 0.30003 0 0 0 0.0218-8e-3 0.30003 0.30003 0 0 0 0.12657-0.10156l17.808-17.806a0.30003 0.30003 0 0 0 0.0782-0.0828 0.30003 0.30003 0 0 0 0-3e-3 0.30003 0.30003 0 0 0 3e-3 -3e-3 0.30003 0.30003 0 0 0 0.0125-0.0218 0.30003 0.30003 0 0 0 3e-3 -5e-3 0.30003 0.30003 0 0 0 9e-3 -0.0219 0.30003 0.30003 0 0 0 0.0203-0.15625v-29.833l1.5531-1.5547a0.30003 0.30003 0 0 0 0.0782-0.0828 0.30003 0.30003 0 0 0 0-2e-3 0.30003 0.30003 0 0 0 2e-3 -3e-3 0.30003 0.30003 0 0 0 0.0125-0.0218 0.30003 0.30003 0 0 0 3e-3 -5e-3 0.30003 0.30003 0 0 0 9e-3 -0.0218 0.30003 0.30003 0 0 0 2e-3 -5e-3 0.30003 0.30003 0 0 0 9e-3 -0.0234 0.30003 0.30003 0 0 0 2e-3 -6e-3 0.30003 0.30003 0 0 0 2e-3 -5e-3 0.30003 0.30003 0 0 0 8e-3 -0.11719v-0.91875h0.4c0.0781 0 0.14063-0.0586 0.14063-0.13281v-4.1719c0-0.0742-0.0625-0.13281-0.14063-0.13281h-0.4v-1.8562l0.10312-0.10313c0.21382 0.13624 0.4651 0.21719 0.73751 0.21719 0.76172 0 1.3797-0.6164 1.3797-1.3781 0-0.76119-0.61714-1.3788-1.3781-1.3797h-2e-3zm-14.397 0.53906c0.46484 0 0.84063 0.37578 0.84063 0.84062s-0.37579 0.83907-0.84063 0.83907c-0.46485 0-0.83905-0.37423-0.83905-0.83907s0.3742-0.84062 0.83905-0.84062zm3.5984 0c0.46484 0 0.83907 0.37578 0.83907 0.84062s-0.37423 0.83907-0.83907 0.83907c-0.46093 0-0.84062-0.37423-0.84062-0.83907s0.37969-0.84062 0.84062-0.84062zm3.6016 0c0.46484 0 0.83907 0.37578 0.83907 0.84062s-0.37423 0.83907-0.83907 0.83907c-0.46485 0-0.84062-0.37423-0.84062-0.83907s0.37577-0.84062 0.84062-0.84062zm3.6016 0c0.46094 0 0.83906 0.37578 0.83906 0.84062s-0.37812 0.83907-0.83906 0.83907c-0.46486 0-0.84062-0.37423-0.84062-0.83907s0.37576-0.84062 0.84062-0.84062zm3.5969 0c0.46484 0 0.84063 0.37578 0.84063 0.84062s-0.37579 0.83907-0.84063 0.83907c-0.46485 0-0.83906-0.37423-0.83906-0.83907s0.37421-0.84062 0.83906-0.84062zm3.6016 0c0.46484 0 0.84063 0.37578 0.84063 0.84062s-0.37579 0.83907-0.84063 0.83907c-0.46485 0-0.83905-0.37423-0.83905-0.83907s0.3742-0.84062 0.83905-0.84062zm-16.777 3.9609c-0.0781 0-0.14531 0.0586-0.14531 0.1328v4.1719c0 0.0742 0.0672 0.13283 0.14531 0.13281h1.3938c0.0781 0 0.14063-0.0586 0.14063-0.13281v-4.1719c0-0.0742-0.0625-0.1328-0.14063-0.1328h-1.3938zm-12.625 1.6172c-0.52735 0-0.95781 0.42968-0.95781 0.96094 0 0.53125 0.43046 0.96094 0.95781 0.96094 0.53124 0 0.96094-0.42969 0.96094-0.96094 0-0.53126-0.4297-0.96094-0.96094-0.96094zm0 0.48125c0.26563 0 0.47969 0.21406 0.47969 0.47969 0 0.26562-0.21406 0.48125-0.47969 0.48125-0.26172 0-0.47656-0.21563-0.47656-0.48125 0-0.26563 0.21484-0.47968 0.47656-0.47969zm17.581 5.6984c-0.53126 0-0.96094 0.42968-0.96094 0.96093 0 0.53124 0.42968 0.96095 0.96094 0.96095s0.96094-0.42971 0.96094-0.96095c0-0.53125-0.42968-0.96093-0.96094-0.96093zm8.5203 0c-0.53125 0-0.96093 0.42968-0.96093 0.96093 0 0.53124 0.42968 0.96095 0.96093 0.96095 0.53127 0 0.96095-0.42971 0.96095-0.96095 0-0.53125-0.42968-0.96093-0.96095-0.96093zm-8.5203 0.48125c0.26562 0 0.48126 0.21406 0.48126 0.47968s-0.21564 0.48126-0.48126 0.48126-0.47969-0.21564-0.47969-0.48126 0.21407-0.47968 0.47969-0.47968zm8.5203 0c0.26563 0 0.47969 0.21406 0.47969 0.47968s-0.21406 0.48126-0.47969 0.48126c-0.26561 0-0.48125-0.21564-0.48125-0.48126s0.21564-0.47968 0.48125-0.47968zm-74.2 1.0812c-0.0781 0-0.14062 0.039-0.14062 0.0859v16.867c0 0.0468 0.0625 0.0859 0.14062 0.0859h6.7969c0.0781 0 0.14063-0.0391 0.14063-0.0859v-16.867c0-0.0468-0.0625-0.0859-0.14063-0.0859h-6.7969zm33.938 1.0203c-0.52736 0-0.95625 0.42969-0.95625 0.96094 0 0.52734 0.42889 0.95625 0.95625 0.95625 0.16056 0 0.30611-0.0478 0.43906-0.11719l1.0031 0.96719v35.631 1.7297c0 0.0742 0.0617 0.12969 0.13594 0.12969h0.32812c0.0742 2e-5 0.13751-0.0555 0.13751-0.12969v-3.4609c0-8e-4 -2e-3 -2e-3 -2e-3 -3e-3v-33.994a0.30003 0.30003 0 0 0-6e-3 -0.0891 0.30003 0.30003 0 0 0-2e-3 -0.0141 0.30003 0.30003 0 0 0-6e-3 -0.0156 0.30003 0.30003 0 0 0-3e-3 -0.0125 0.30003 0.30003 0 0 0-5e-3 -0.0156 0.30003 0.30003 0 0 0-0.10156-0.12968l-1.0594-1.0203c0.0614-0.12605 0.10156-0.26328 0.10156-0.41249 0-0.53125-0.42969-0.96094-0.96093-0.96094zm2.8828 0c-0.53124 0-0.96093 0.42969-0.96093 0.96094 0 0.42138 0.27964 0.76804 0.66093 0.89531v36.542 1.7297c0 0.0742 0.0586 0.12969 0.13282 0.12969h0.33125c0.0742 2e-5 0.1375-0.0555 0.1375-0.12969v-3.4609c0-8e-4 -2e-3 -2e-3 -2e-3 -3e-3v-34.808c0.37872-0.12761 0.65782-0.47435 0.65782-0.89531 0-0.53125-0.43046-0.96094-0.95782-0.96094zm2.8203 0c-0.53123 0-0.96094 0.42969-0.96094 0.96094 0 0.15481 0.0452 0.29541 0.11094 0.425l-1.0109 1.0109a0.30003 0.30003 0 0 0-0.0922 0.11875 0.30003 0.30003 0 0 0-6e-3 0.011 0.30003 0.30003 0 0 0-2e-3 5e-3 0.30003 0.30003 0 0 0-8e-3 0.0234 0.30003 0.30003 0 0 0-3e-3 0.011 0.30003 0.30003 0 0 0-8e-3 0.10781v35.725 1.7297c0 0.0742 0.0586 0.12969 0.1328 0.12969h0.33125c0.0742 2e-5 0.13282-0.0555 0.13282-0.12969v-1.6797a0.30003 0.30003 0 0 0 3e-3 -0.05v-35.634l0.95625-0.95626c0.12936 0.0647 0.26876 0.10938 0.42344 0.10938 0.52734 0 0.9578-0.42891 0.9578-0.95625 0-0.53125-0.43046-0.96094-0.9578-0.96094zm2.8203 0c-0.53124 0-0.96095 0.42969-0.96095 0.96094 0 0.15481 0.0452 0.29541 0.11095 0.425l-2.761 2.7562a0.30003 0.30003 0 0 0-0.0828 0.10781 0.30003 0.30003 0 0 0-0.0172 0.0422 0.30003 0.30003 0 0 0-2e-3 6e-3 0.30003 0.30003 0 0 0-9e-3 0.12188v33.978 1.7297c0 0.0742 0.0617 0.12969 0.13594 0.12969h0.32813c0.0742 2e-5 0.1375-0.0555 0.1375-0.12969v-3.4609c0-8e-4 -2e-3 -2e-3 -2e-3 -3e-3v-32.161l2.6984-2.6937c0.12916 0.0644 0.26906 0.10781 0.42344 0.10781 0.52734 0 0.95781-0.42892 0.95781-0.95625 0-0.53125-0.43047-0.96094-0.95781-0.96094zm-8.5234 0.47969c0.2656 0 0.48124 0.21561 0.48124 0.48125 0 0.26562-0.21564 0.47969-0.48124 0.47969-0.26172 0-0.47656-0.21407-0.47656-0.47969 0-0.26564 0.21484-0.48125 0.47656-0.48125zm2.8828 0c0.26564 0 0.48126 0.21561 0.48126 0.48125 0 0.26562-0.21562 0.47969-0.48126 0.47969-0.26561 0-0.47968-0.21407-0.47968-0.47969 0-0.26564 0.21407-0.48125 0.47968-0.48125zm2.8203 0c0.26564 0 0.48125 0.21561 0.48125 0.48125 0 0.26562-0.21561 0.47969-0.48125 0.47969-0.26561 0-0.47968-0.21407-0.47968-0.47969 0-0.26564 0.21407-0.48125 0.47968-0.48125zm2.8203 0c0.26172 0 0.47656 0.21561 0.47656 0.48125 0 0.26562-0.21484 0.47969-0.47656 0.47969-0.26564 0-0.47969-0.21407-0.47969-0.47969 0-0.26564 0.21405-0.48125 0.47969-0.48125zm5.0969 0.35938c-0.42379 7e-4 -0.77121 0.2801-0.89844 0.66093h-2.4812a0.30003 0.30003 0 0 0-0.0438-3e-3 0.30003 0.30003 0 0 0-0.0875 0.0172 0.30003 0.30003 0 0 0-0.14219 0.0969l-3.9062 3.9031a0.30003 0.30003 0 0 0-0.0782 0.0906 0.30003 0.30003 0 0 0-0.0203 0.039 0.30003 0.30003 0 0 0-2e-3 5e-3 0.30003 0.30003 0 0 0-0.0187 0.16094v32.589 1.7297c0 0.0742 0.0617 0.12968 0.13594 0.12968h0.32813c0.0742 2e-5 0.1375-0.0555 0.1375-0.12968v-3.4609c0-8e-4 -3e-3 -2e-3 -3e-3 -3e-3v-30.781l3.7859-3.7828h2.3938c0.12773 0.37872 0.47593 0.6578 0.9 0.6578 0.53125 0 0.96094-0.43045 0.96094-0.9578 0-0.53072-0.42886-0.96008-0.95938-0.96094h-2e-3zm2e-3 0.48125c0.26563 0 0.47969 0.21405 0.47969 0.47968 0 0.26564-0.21406 0.48125-0.47969 0.48125-0.26562 0-0.48125-0.21561-0.48125-0.48125 0-0.26563 0.21563-0.47968 0.48125-0.47968zm-5.3984 16.5c-0.53124 0-0.96095 0.42968-0.96095 0.96093 0 0.52734 0.42971 0.95625 0.96095 0.95625 0.29673 0 0.55287-0.14329 0.72968-0.35625h22.058c0.17616 0.21296 0.43231 0.35625 0.73125 0.35625 0.53126 0 0.96094-0.42891 0.96094-0.95625 0-0.53125-0.42968-0.96093-0.96094-0.96093-0.3005 0-0.55824 0.14534-0.73438 0.36093h-22.052c-0.17679-0.21559-0.43451-0.36093-0.7328-0.36093zm0 0.47968c0.26561 0 0.47968 0.21564 0.47968 0.48125 0 0.26172-0.21407 0.47658-0.47968 0.47656-0.26564 0-0.48126-0.21484-0.48126-0.47656 0-0.26561 0.21562-0.48125 0.48126-0.48125zm23.519 0c0.26562 0 0.48126 0.21564 0.48126 0.48125 0 0.26172-0.21564 0.47658-0.48126 0.47656-0.26562 0-0.47969-0.21484-0.47969-0.47656 0-0.26561 0.21407-0.48125 0.47969-0.48125zm-67.175 0.0594c-0.082 0-0.14531 0.0625-0.14531 0.14063v6.7969c0 0.0781 0.0633 0.14375 0.14531 0.14375h1.4719l1.1422 1.1438v0.11406h-0.33749c-0.0781 0-0.14063 0.0547-0.14063 0.125v5.9922c0 0.0664 0.0625 0.125 0.14063 0.125h1.3953c0.0781 0 0.14374-0.0586 0.14374-0.125v-5.9922c0-0.0703-0.0656-0.125-0.14374-0.125h-0.45782v-0.2a0.30003 0.30003 0 0 0-0.0125-0.12656 0.30003 0.30003 0 0 0-2e-3 -6e-3 0.30003 0.30003 0 0 0-8e-3 -0.0218 0.30003 0.30003 0 0 0-3e-3 -6e-3 0.30003 0.30003 0 0 0-0.011-0.0218 0.30003 0.30003 0 0 0-0.0812-0.0969l-0.77657-0.77812h0.26875c0.082 0 0.14531-0.0656 0.14531-0.14375v-6.7969c0-0.0781-0.0633-0.14063-0.14531-0.14063h-2.5891zm7.1984 0c-0.0781 0-0.14375 0.0625-0.14375 0.14063v6.7969c0 0.0702 0.0559 0.12275 0.12344 0.13438l-0.78594 0.78593a0.30003 0.30003 0 0 0-0.11875 0.24375 0.30005 0.30005 0 0 0 0 5e-3v0.23281h-0.39531c-0.0781 0-0.14375 0.0547-0.14375 0.125v5.9922c0 0.0664 0.0656 0.125 0.14375 0.125h1.3953c0.0781 0 0.14062-0.0586 0.14062-0.125v-5.9922c0-0.0703-0.0625-0.125-0.14062-0.125h-0.4v-0.11405l1.1438-1.1438h1.775c0.0781 0 0.14063-0.0656 0.14063-0.14375v-6.7969c0-0.0781-0.0625-0.14062-0.14063-0.14062h-2.5938zm46.655 4.5578c-0.42379 7.1e-4 -0.77121 0.28011-0.89844 0.66094h-4.7031a0.30003 0.30003 0 0 0-0.0438-3e-3 0.30003 0.30003 0 0 0-0.0875 0.0172 0.30003 0.30003 0 0 0-0.14843 0.10469l-5.3375 5.3406a0.30003 0.30003 0 0 0-0.0953 0.12344 0.30003 0.30003 0 0 0-3e-3 6e-3 0.30003 0.30003 0 0 0-2e-3 5e-3 0.30003 0.30003 0 0 0-8e-3 0.0234 0.30003 0.30003 0 0 0-3e-3 0.011 0.30003 0.30003 0 0 0-8e-3 0.11718v9.075 1.7297c0 0.0742 0.0586 0.12969 0.13281 0.12969h0.33125c0.0742 2e-5 0.1375-0.0555 0.1375-0.12969v-3.4609c0-8e-4 -3e-3 -2e-3 -3e-3 -3e-3v-7.2594l5.2234-5.2266h4.6141c0.12696 0.38206 0.47652 0.66095 0.90156 0.66095 0.53125 0 0.96093-0.42971 0.96093-0.96095 0-0.53073-0.42884-0.96008-0.95937-0.96093h-2e-3zm2e-3 0.48125c0.26563 0 0.48125 0.21406 0.48125 0.47969 0 0.26561-0.21562 0.48125-0.48125 0.48125-0.26562 0-0.47969-0.21564-0.47969-0.48125 0-0.26563 0.21407-0.47969 0.47969-0.47969zm-48.961 0.12031c-0.53125 0-0.96093 0.42969-0.96093 0.96095 0 0.53124 0.42968 0.96093 0.96093 0.96093 0.53124 0 0.96094-0.42969 0.96094-0.96093 0-0.53126-0.4297-0.96095-0.96094-0.96095zm0 0.48126c0.26563 0 0.48125 0.21405 0.48125 0.47969 0 0.2656-0.21562 0.48124-0.48125 0.48124s-0.47969-0.21564-0.47969-0.48124c0-0.26564 0.21406-0.47969 0.47969-0.47969zm48.959 2.0391c-0.42432 7e-4 -0.7732 0.27935-0.9 0.66094h-6.1359a0.30003 0.30003 0 0 0-0.05-3e-3 0.30003 0.30003 0 0 0-0.13125 0.0344 0.30003 0.30003 0 0 0-8e-3 3e-3 0.30003 0.30003 0 0 0-5e-3 3e-3 0.30003 0.30003 0 0 0-0.0937 0.0813l-2.7547 2.7578a0.30003 0.30003 0 0 0-0.0922 0.11875 0.30003 0.30003 0 0 0-6e-3 0.011 0.30003 0.30003 0 0 0-2e-3 5e-3 0.30003 0.30003 0 0 0-9e-3 0.0234 0.30003 0.30003 0 0 0-3e-3 0.011 0.30003 0.30003 0 0 0-8e-3 0.11719v8.5359 1.7297c0 0.0742 0.0586 0.12969 0.13282 0.12969h0.33124c0.0742 2e-5 0.13282-0.0555 0.13282-0.12969v-1.6797a0.30003 0.30003 0 0 0 3e-3 -0.05v-8.4547l2.6391-2.6438h6.0594c0.12739 0.38131 0.47549 0.66094 0.9 0.66094 0.53126 0 0.96094-0.42969 0.96094-0.96094 0-0.53072-0.42885-0.96008-0.95938-0.96093h-2e-3zm2e-3 0.47968c0.26563 0 0.48125 0.21563 0.48125 0.48126s-0.21562 0.47969-0.48125 0.47969c-0.26562 0-0.47969-0.21407-0.47969-0.47969 0-0.26563 0.21407-0.48126 0.47969-0.48126zm-58.777 0.17969c-0.0781 0-0.14531 0.0547-0.14531 0.125v5.9922c0 0.0664 0.0672 0.125 0.14531 0.125h1.3938c0.0781 0 0.14531-0.0586 0.14531-0.125v-5.9922c0-0.0703-0.0672-0.125-0.14531-0.125h-1.3938zm3.6016 0c-0.082 0-0.14531 0.0547-0.14531 0.125v5.9922c0 0.0664 0.0633 0.125 0.14531 0.125h1.3938c0.0781 0 0.14062-0.0586 0.14062-0.125v-5.9922c0-0.0703-0.0625-0.125-0.14062-0.125h-1.3938zm34.37 1.7422c-0.0742 0-0.13594 0.0672-0.13594 0.14531v1.9844c0 0.082 0.0617 0.14843 0.13594 0.14843h3.0906c0.0742 0 0.13282-0.0664 0.13282-0.14843v-1.9844c0-0.0781-0.0586-0.14531-0.13282-0.14531h-3.0906zm15.302 0c-0.0742 0-0.13751 0.0672-0.13751 0.14531v1.9844c0 0.082 0.0633 0.14843 0.13751 0.14843h3.089c0.0742 0 0.13282-0.0664 0.13282-0.14843v-1.9844c0-0.0781-0.0586-0.14531-0.13282-0.14531h-3.089zm-18.856 2.1609c-0.53125 0-0.96093 0.4289-0.96093 0.95625 0 0.53124 0.42968 0.96093 0.96093 0.96093 0.53127 0 0.96095-0.42968 0.96095-0.96093 0-0.52734-0.42968-0.95625-0.96095-0.95625zm0 0.47656c0.26563 0 0.48126 0.21406 0.48126 0.47969s-0.21563 0.48125-0.48126 0.48125c-0.26561 0-0.47969-0.21563-0.47969-0.48125 0-0.26563 0.21408-0.47969 0.47969-0.47969zm16.438 0.0625c-0.52736 0-0.95625 0.42969-0.95625 0.96093 0 0.52736 0.42889 0.95627 0.95625 0.95625 0.53124 0 0.96093-0.42889 0.96093-0.95625 0-0.53124-0.42969-0.96093-0.96093-0.96093zm7.9219 0c-0.53125 0-0.96094 0.42969-0.96094 0.96093 0 0.52736 0.42969 0.95627 0.96094 0.95625 0.53126 0 0.96093-0.42889 0.96093-0.95625 0-0.53124-0.42967-0.96093-0.96093-0.96093zm-7.9219 0.47969c0.2656 0 0.48124 0.21563 0.48124 0.48124 0 0.26172-0.21564 0.47656-0.48124 0.47656-0.26172 0-0.47656-0.21484-0.47656-0.47656 0-0.26561 0.21484-0.48124 0.47656-0.48124zm7.9219 0c0.26563 0 0.48125 0.21563 0.48125 0.48124 0 0.26172-0.21562 0.47656-0.48125 0.47656-0.26562 0-0.47969-0.21484-0.47969-0.47656 0-0.26561 0.21407-0.48124 0.47969-0.48124zm-20.805 1.9156v3e-3c-0.0742 0-0.13594 0.0664-0.13594 0.14843v0.39219h-2.6844c-0.17612-0.21559-0.43387-0.36093-0.73438-0.36094-0.3005 0-0.55825 0.14535-0.73437 0.36094h-34.575a0.60006 0.60006 0 0 0-0.10625-6e-3 0.60006 0.60006 0 0 0-0.2125 0.0469 0.60006 0.60006 0 0 0-0.0125 6e-3 0.60006 0.60006 0 0 0-0.011 3e-3 0.60006 0.60006 0 0 0-0.23749 0.18906l-1.0141 1.0172a0.60006 0.60006 0 0 0-0.20625 0.29063 0.60006 0.60006 0 0 0-0.0297 0.27031v22.159a0.60006 0.60006 0 0 0 0.039 0.30313 0.60006 0.60006 0 0 0 5e-3 0.0156 0.60006 0.60006 0 0 0 5e-3 9e-3 0.60006 0.60006 0 0 0 0.19376 0.24531l1.6156 1.6156v1.2859c0 0.082 0.0633 0.14844 0.1375 0.14844h3.0891c0.0742 0 0.13282-0.0664 0.13282-0.14844v-0.51406h0.84062v0.57188c0 0.082 0.0617 0.14843 0.13594 0.14843h3.0906c0.0742 0 0.13282-0.0664 0.13282-0.14843v-0.57188h4.2v2.4375a0.60006 0.60006 0 0 0 0.039 0.30312 0.60006 0.60006 0 0 0 6e-3 0.0156 0.60006 0.60006 0 0 0 5e-3 8e-3 0.60006 0.60006 0 0 0 0.19218 0.24532l0.7125 0.7125a0.60006 0.60006 0 0 0 0.24688 0.19062 0.60006 0.60006 0 0 0 0.0125 6e-3 0.60006 0.60006 0 0 0 8e-3 3e-3 0.60006 0.60006 0 0 0 0.29375 0.0375h5.0781l0.90312 0.90313a0.60006 0.60006 0 0 0 0.24375 0.18906 0.60006 0.60006 0 0 0 0.0156 8e-3 0.60006 0.60006 0 0 0 9e-3 3e-3 0.60006 0.60006 0 0 0 0.29688 0.0375h0.45937v2.6266c0 0.0742 0.0664 0.1328 0.14844 0.1328h1.9844c0.0781 0 0.14531-0.0586 0.14531-0.1328v-2.6266h5.5516a0.60006 0.60006 0 0 0 0.26563-0.0234 0.60006 0.60006 0 0 0 0.0375-0.0125 0.60006 0.60006 0 0 0 6e-3 -3e-3 0.60006 0.60006 0 0 0 0.24062-0.16875l0.475-0.42656a0.60006 0.60006 0 0 0 0.21094-0.24688 0.60006 0.60006 0 0 0 8e-3 -0.0187h0.97813c0.082 0 0.14843-0.0586 0.14843-0.1328v-3.0938c0-0.0742-0.0664-0.13281-0.14843-0.13281h-1.2516a0.60006 0.60006 0 0 0-0.28906-0.0703 0.60006 0.60006 0 0 0-0.27188 0.0703h-0.17187c-0.082 0-0.14844 0.0586-0.14844 0.13281v0.10625h-0.60781c-0.0117-0.0659-0.0605-0.11875-0.12657-0.11875h-2.0078c-0.0742 0-0.13751 0.0625-0.13751 0.14062v0.55469c0 0.0781 0.0633 0.14532 0.13751 0.14531h2.0078c0.0657 0 0.1144-0.0558 0.12657-0.12187h0.60781v2.0141l-0.23125 0.20624h-6.2469v-0.6078c0.0658-0.0118 0.11874-0.0622 0.11874-0.12813v-2.0078c0-0.0742-0.0625-0.13593-0.14062-0.13593h-0.55469c-0.082 0-0.14531 0.0617-0.14531 0.13593v2.0078c0 0.0657 0.0537 0.11609 0.12188 0.12813v0.6078h-1.1313l-0.90624-0.90624a0.60006 0.60006 0 0 0-0.25469-0.1922 0.60006 0.60006 0 0 0-0.011-5e-3 0.60006 0.60006 0 0 0-5e-3 -2e-3 0.60006 0.60006 0 0 0-0.21875-0.0422 0.60006 0.60006 0 0 0-0.0797 6e-3h-5.0688l-0.48749-0.48906v-2.7734a0.60006 0.60006 0 0 0 0-0.19688v-12.561h0.1c0.0781 0 0.14062-0.0555 0.14062-0.12187v-5.9922c0-0.0703-0.0625-0.125-0.14062-0.125h-1.3953c-0.0781 0-0.14376 0.0547-0.14376 0.125v5.9922c0 0.0664 0.0656 0.12187 0.14376 0.12187h0.0953v12.059h-4.2v-0.20782c0-0.082-0.0586-0.14843-0.13282-0.14843h-3.0906c-0.0742 0-0.13594 0.0664-0.13594 0.14843v0.20782h-0.84062v-0.27031c0-0.082-0.0586-0.14844-0.13282-0.14844h-2.3766l-1.5078-1.5078v-21.822l0.78594-0.78907h34.42c0.17614 0.21506 0.43275 0.36095 0.73281 0.36095 0.30008 0 0.55667-0.14589 0.73282-0.36095h2.6859v0.3922c0 0.082 0.0617 0.14844 0.13594 0.14843h2.6844v2.5781 1.7297c0 0.0742 0.0617 0.12969 0.13594 0.12969h0.32813c0.0742 1e-5 0.1375-0.0555 0.1375-0.12969v-3.4609c0-8e-4 -2e-3 -2e-3 -2e-3 -3e-3v-1.9297a0.30003 0.30003 0 0 0-0.061-0.24062v-3e-3 -0.80469c0-0.082-0.0586-0.14844-0.13281-0.14844h-3.0906zm15.3 3e-3c-0.0735 8e-4 -0.13594 0.067-0.13594 0.14843v0.69219h-1.3969a0.30003 0.30003 0 0 0-0.05-3e-3 0.30003 0.30003 0 0 0-0.0891 0.0156 0.30003 0.30003 0 0 0-0.0218 9e-3 0.30003 0.30003 0 0 0-0.011 5e-3 0.30003 0.30003 0 0 0-0.11563 0.0922l-1.6172 1.6172a0.30003 0.30003 0 0 0-0.10938 0.1625 0.30005 0.30005 0 0 0-5e-3 0.025 0.30003 0.30003 0 0 0-3e-3 0.0203 0.30005 0.30005 0 0 0-3e-3 9e-3 0.30003 0.30003 0 0 0 0 0.0266 0.30005 0.30005 0 0 0 0 5e-3v2.0344a0.30003 0.30003 0 0 0 3e-3 0.05v1.6797c0 0.0742 0.0586 0.12969 0.13282 0.12969h0.33125c0.0742 2e-5 0.13281-0.0555 0.13281-0.12969v-1.7297-1.9156l1.5016-1.5031h1.3188v0.69218c0 2e-3 3e-3 2e-3 3e-3 5e-3v0.98751c-3e-5 8e-4 -3e-3 2e-3 -3e-3 3e-3v3.4609c0 0.0742 0.0633 0.12969 0.13749 0.12969h0.32813c0.0742 2e-5 0.13594-0.0555 0.13594-0.12969v-3.4609-0.84687h1.6719l0.24843 0.24843v2.0766c-0.21529 0.17612-0.36094 0.43252-0.36094 0.7328 0 0.53124 0.4297 0.96095 0.96094 0.96095 0.53125 0 0.96093-0.42971 0.96093-0.96095 0-0.30016-0.14577-0.55667-0.36093-0.7328v-1.725h0.35937l0.11876 0.23906 0.3 0.30156 0.35937 0.17969h0.42187l0.41876-0.17969 0.3-0.30156 0.17968-0.35938v-0.42188l-0.17968-0.41718-0.3-0.30156-0.41876-0.17969h-0.42187l-0.35937 0.17969-0.061 0.061h-1.0688l-0.011-0.011v-1.5219c0-0.082-0.0586-0.14843-0.13281-0.14843h-3.0875-2e-3zm-18.855 0.65937c0.26563 0 0.48126 0.21562 0.48126 0.48125 0 0.26561-0.21563 0.47969-0.48126 0.47969-0.26561 0-0.47969-0.21408-0.47969-0.47969 0-0.26563 0.21408-0.48125 0.47969-0.48125zm16.575 2.3406c-0.0742 0-0.13749 0.0578-0.13749 0.12812v3.4609c0 0.0742 0.0633 0.12968 0.13749 0.12968h0.32813c0.0781 2e-5 0.13594-0.0555 0.13594-0.12968v-3.4609c0-0.0703-0.0578-0.12812-0.13594-0.12812h-0.32813zm1.1406 0c-0.0742 0-0.1375 0.0578-0.1375 0.12812v3.4609c0 0.0742 0.0633 0.12968 0.1375 0.12968h0.32812c0.0742 2e-5 0.13594-0.0555 0.13594-0.12968v-3.4609c0-0.0703-0.0617-0.12812-0.13594-0.12812h-0.32812zm-17.716 0.3c-0.53125 0-0.96093 0.42969-0.96093 0.96094 0 0.52734 0.42968 0.9578 0.96093 0.9578 0.53127 0 0.96095-0.43045 0.96095-0.9578 0-0.53126-0.42968-0.96094-0.96095-0.96094zm0 0.48125c0.26563 0 0.48126 0.21405 0.48126 0.47969 0 0.26562-0.21563 0.48124-0.48126 0.48124-0.26561 0-0.47969-0.21562-0.47969-0.48124 0-0.26564 0.21408-0.47969 0.47969-0.47969zm-22.378 0.59687c-0.53125 0-0.96093 0.42968-0.96093 0.96094 0 0.53124 0.42968 0.96094 0.96093 0.96094 0.0327 0 0.0603-0.0154 0.0922-0.0187l1.4016 1.4031a0.60006 0.60006 0 0 0 0.23906 0.1875 0.60006 0.60006 0 0 0 0.0156 8e-3 0.60006 0.60006 0 0 0 9e-3 3e-3 0.60006 0.60006 0 0 0 0.30626 0.0375h1.3531v0.39219c0 0.082 0.0586 0.14844 0.13281 0.14844h3.0938c0.0742 0 0.13281-0.0664 0.13281-0.14844v-1.9844c0-0.082-0.0586-0.14844-0.13281-0.14844h-3.0938c-0.0742 0-0.13281 0.0664-0.13281 0.14844v0.39219h-1.1922l-1.2875-1.2891c3e-3 -0.0318 0.0187-0.0595 0.0187-0.0922 0-0.53126-0.4289-0.96094-0.95625-0.96094zm26.636 0c-0.52735 0-0.95625 0.42968-0.95625 0.96094 0 0.53124 0.4289 0.96094 0.95625 0.96094 0.53125 0 0.96093-0.4297 0.96093-0.96094 0-0.53126-0.42968-0.96094-0.96093-0.96094zm-26.636 0.48125c0.26172 0 0.47656 0.21406 0.47656 0.47969 0 0.26561-0.21484 0.48125-0.47656 0.48125-0.26562 0-0.48125-0.21564-0.48125-0.48125 0-0.26563 0.21563-0.47969 0.48125-0.47969zm26.636 0c0.26561 0 0.48125 0.21406 0.48125 0.47969 0 0.26561-0.21564 0.48125-0.48125 0.48125-0.26563 0-0.47969-0.21564-0.47969-0.48125 0-0.26563 0.21406-0.47969 0.47969-0.47969zm17.583 0c0.26564 0 0.47968 0.21406 0.47968 0.47969 0 0.26561-0.21404 0.48125-0.47968 0.48125-0.26561 0-0.48125-0.21564-0.48125-0.48125 0-0.26563 0.21564-0.47969 0.48125-0.47969zm22.558 0.72188c-1.457 0-2.6406 1.1805-2.6406 2.6375 0 1.461 1.1836 2.6406 2.6406 2.6406 0.41047 0 0.79548-0.10159 1.1422-0.26875v1.7078l-1.0797 1.0797v0.12188l1.5 1.5h0.11718l0.20625-0.20626 0.56719 0.56563a0.60006 0.60006 0 0 0 0.29062 0.20937 0.60006 0.60006 0 0 0 0.27344 0.0313h2.0844v0.275c0 0.082 0.0633 0.14376 0.14531 0.14375h2.1094c0.082 1e-5 0.14375-0.0618 0.14375-0.14375v-1.5125c0-0.0781-0.0618-0.14374-0.14375-0.14375h-2.1094c-0.082 0-0.14531 0.0657-0.14531 0.14375v0.0375h-1.9109l-0.45469-0.45626 0.62344-0.62343v-0.12188l-1.0172-1.0172v-2.1234a0.60006 0.60006 0 0 0-0.0438-0.33125 0.60006 0.60006 0 0 0 0-2e-3 0.60006 0.60006 0 0 0-3e-3 -6e-3 0.60006 0.60006 0 0 0-5e-3 -0.011 0.60006 0.60006 0 0 0-0.0562-0.0969c0.253-0.40504 0.40625-0.87859 0.40625-1.3922 0-1.457-1.1836-2.6375-2.6406-2.6375zm7.1406 0c-1.457 0-2.6406 1.1805-2.6406 2.6375 0 1.461 1.1836 2.6406 2.6406 2.6406 0.51916 0 1.0008-0.15517 1.4094-0.41406l1.4125 1.3875v2.8656h-0.94688c-0.0742 0-0.13594 0.0664-0.13594 0.14844v1.9844c0 0.082 0.0617 0.14843 0.13594 0.14843h3.0906c0.0742 0 0.13594-0.0664 0.13594-0.14843v-1.9844c0-0.082-0.0617-0.14844-0.13594-0.14844h-0.94374v-3.05a0.60006 0.60006 0 0 0-9e-3 -0.18593 0.60006 0.60006 0 0 0-5e-3 -0.0234 0.60006 0.60006 0 0 0-3e-3 -0.0125 0.60006 0.60006 0 0 0-0.22344-0.33282l-1.5328-1.5062c0.24419-0.40007 0.39218-0.86493 0.39218-1.3688 0-1.457-1.1836-2.6375-2.6406-2.6375zm-7.1406 1.2c0.79687 0 1.4422 0.64453 1.4422 1.4375 0 0.7969-0.64532 1.4406-1.4422 1.4406-0.79297 0-1.4375-0.64373-1.4375-1.4406 0-0.79296 0.64452-1.4375 1.4375-1.4375zm7.1406 0c0.79687 0 1.4422 0.64453 1.4422 1.4375 0 0.7969-0.64532 1.4406-1.4422 1.4406-0.79688 0-1.4406-0.64373-1.4406-1.4406 0-0.79296 0.64375-1.4375 1.4406-1.4375zm-45.227 0.47969c-0.0451 0-0.0776 0.0258-0.10156 0.0594h-0.70313-3.4562c-0.0742 0-0.13282 0.0617-0.13282 0.13593v0.32812c0 0.0742 0.0586 0.13751 0.13282 0.13751h3.4562c8e-4 0 2e-3 -2e-3 3e-3 -2e-3h0.66874v12.408c0 0.0742 0.0586 0.13282 0.13282 0.13282h10.127v0.66406c-4e-5 8e-4 -2e-3 2e-3 -2e-3 3e-3v3.4609c0 0.0742 0.0633 0.12969 0.13749 0.12969h0.32813c0.0781 0 0.13594-0.0555 0.13594-0.12969v-3.4609-0.66718h2.2078c0.0742 0 0.13281-0.0586 0.13281-0.13282v-12.934c0-0.0742-0.0586-0.13281-0.13281-0.13281h-12.934zm-40.73 0.71874c-0.0781 0-0.14531 0.0547-0.14531 0.12501v5.9922c0 0.0664 0.0672 0.12187 0.14531 0.12187h0.45781v2.4031c-0.38206 0.12684-0.66094 0.47497-0.66094 0.89687 0 0.42504 0.27888 0.7746 0.66094 0.90157v2.3406h-1.1844c-0.0742 0-0.13751 0.0664-0.13751 0.14843v1.9812c0 0.082 0.0633 0.14844 0.13751 0.14844h3.089c0.0742 0 0.13282-0.0664 0.13282-0.14844v-1.9812c0-0.082-0.0586-0.14843-0.13282-0.14843h-1.3047v-2.3422c0.38131-0.12738 0.66094-0.47548 0.66094-0.9 0-0.42137-0.27962-0.76804-0.66094-0.89531v-2.4047h0.33594c0.0781 0 0.14531-0.0555 0.14531-0.12187v-5.9922c0-0.0703-0.0672-0.12501-0.14531-0.12501h-1.3938zm3.6016 0c-0.082 0-0.14531 0.0547-0.14531 0.12501v5.9922c0 0.0664 0.0633 0.12187 0.14531 0.12187h0.51562v4.3813c-0.3813 0.12738-0.66093 0.47549-0.66093 0.9 0 0.4246 0.27951 0.77268 0.66093 0.9v0.42031h-0.64531c-0.0742 0-0.13594 0.0664-0.13594 0.14843v1.9844c0 0.082 0.0617 0.14844 0.13594 0.14844h3.0906c0.0742 0 0.13282-0.0664 0.13282-0.14844v-1.9844c0-0.082-0.0586-0.14843-0.13282-0.14843h-1.8453v-0.42031c0.38203-0.12698 0.66095-0.47498 0.66095-0.9 0-0.42504-0.27888-0.77461-0.66095-0.90157v-4.3797h0.27813c0.0781 0 0.14062-0.0555 0.14062-0.12187v-5.9922c0-0.0703-0.0625-0.125-0.14062-0.12501h-1.3938zm3.5969 0c-0.0781 0-0.14063 0.0547-0.14063 0.12501v5.9922c0 0.0664 0.0625 0.12187 0.14063 0.12187h1.3953c0.0781 0 0.14374-0.0555 0.14374-0.12187v-5.9922c0-0.0703-0.0656-0.125-0.14374-0.12501h-1.3953zm61.719 0.17969-1.9812 1.9812h-0.20312a0.30003 0.30003 0 0 0-0.0453-3e-3 0.30003 0.30003 0 0 0-0.10156 0.0218 0.30003 0.30003 0 0 0-8e-3 3e-3 0.30003 0.30003 0 0 0-6e-3 3e-3 0.30003 0.30003 0 0 0-0.11875 0.0922l-6.0641 6.1219h-2.5188c-8e-4 -3e-5 -2e-3 -2e-3 -3e-3 -2e-3h-3.4609c-0.0703 0-0.12969 0.0633-0.12969 0.1375v0.32812c0 0.0781 0.0594 0.13595 0.12969 0.13594h3.4609 2.6125a0.30003 0.30003 0 0 0 0.14218-0.0187 0.30003 0.30003 0 0 0 0.13438-0.0984l6.0641-6.1219h2e-3l1.3141 1.2594h0.12188l2.2812-2.2812v-0.11719l-1.5-1.4422h-0.12188zm-32.448 0.30157c-0.0742 0-0.13282 0.0586-0.13282 0.1328v0.33126c0 0.0742 0.0586 0.1375 0.13282 0.1375h3.4562c0.0742 0 0.13281-0.0633 0.13281-0.1375v-0.33126c0-0.0742-0.0586-0.1328-0.13281-0.1328h-3.4562zm5.9297 0.12031c0.26561 0 0.47969 0.21563 0.47969 0.48125 0 0.26172-0.21408 0.47656-0.47969 0.47656-0.26563 0-0.48126-0.21484-0.48126-0.47656 0-0.26562 0.21563-0.48125 0.48126-0.48125zm3.0578 0c0.26563 0 0.48124 0.21563 0.48124 0.48125 0 0.26172-0.21561 0.47656-0.48124 0.47656-0.26562 0-0.47969-0.21484-0.47969-0.47656 0-0.26562 0.21407-0.48125 0.47969-0.48125zm3.4219 0c0.26172 0 0.47656 0.21563 0.47656 0.48125 0 0.26172-0.21484 0.47656-0.47656 0.47656-0.26564 0-0.47969-0.21484-0.47969-0.47656 0-0.26562 0.21405-0.48125 0.47969-0.48125zm3.1172 0c0.26562 0 0.48125 0.21563 0.48125 0.48125 0 0.26172-0.21563 0.47656-0.48125 0.47656-0.26563 0-0.47969-0.21484-0.47969-0.47656 0-0.26562 0.21406-0.48125 0.47969-0.48125zm-15.527 1.0203c-0.0742 0-0.13282 0.0586-0.13282 0.13281v0.33125c0 0.0742 0.0586 0.13281 0.13282 0.13281h3.4562c0.0742 0 0.13281-0.0586 0.13281-0.13281v-0.33125c0-0.0742-0.0586-0.13281-0.13281-0.13281h-3.4562zm0 1.1406c-0.0742 0-0.13282 0.0586-0.13282 0.13282v0.33125c0 0.0742 0.0586 0.13281 0.13282 0.13281h3.4562c0.0742 0 0.13281-0.0586 0.13281-0.13281v-0.33125c0-0.0742-0.0586-0.13282-0.13281-0.13282h-3.4562zm-20.88 0.53907c-0.0742 0-0.13281 0.0664-0.13281 0.14843v1.9844c0 0.082 0.0586 0.14844 0.13281 0.14844h2.2688a0.30003 0.30003 0 0 0 0.0328 0.0203 0.30003 0.30003 0 0 0 9e-3 6e-3 0.30003 0.30003 0 0 0 2e-3 0 0.30003 0.30003 0 0 0 3e-3 2e-3 0.30003 0.30003 0 0 0 0.0203 9e-3 0.30003 0.30003 0 0 0 5e-3 2e-3 0.30003 0.30003 0 0 0 0.15625 0.0187h20.109 1.7297c0.0742 0 0.13281-0.0617 0.13281-0.13595v-0.32812c0-0.0742-0.0586-0.13749-0.13281-0.1375h-3.4562c-8e-4 0-2e-3 3e-3 -3e-3 3e-3h-17.65v-1.5906c0-0.082-0.0586-0.14844-0.13282-0.14844h-3.0937v-2e-3zm26.809 0.41718c0.26561 0 0.47969 0.21563 0.47969 0.48125 0 0.26563-0.21408 0.47969-0.47969 0.47969-0.26563 0-0.48126-0.21406-0.48126-0.47969 0-0.26562 0.21563-0.48125 0.48126-0.48125zm3.0578 0c0.26563 0 0.48124 0.21563 0.48124 0.48125 0 0.26563-0.21561 0.47969-0.48124 0.47969-0.26562 0-0.47969-0.21406-0.47969-0.47969 0-0.26562 0.21407-0.48125 0.47969-0.48125zm3.4219 0c0.26172 0 0.47656 0.21563 0.47656 0.48125 0 0.26563-0.21484 0.47969-0.47656 0.47969-0.26564 0-0.47969-0.21406-0.47969-0.47969 0-0.26562 0.21405-0.48125 0.47969-0.48125zm3.1172 0c0.26562 0 0.48125 0.21563 0.48125 0.48125 0 0.26563-0.21563 0.47969-0.48125 0.47969-0.26563 0-0.47969-0.21406-0.47969-0.47969 0-0.26562 0.21406-0.48125 0.47969-0.48125zm20.583 0.0625-2.2813 2.2781v0.12031l1.4406 1.4422h0.1172l0.92968-0.92969 0.53907 0.53906-0.50782 0.50781v0.12031l1.4422 1.4422h0.12032l1.6797-1.6797v-0.12188l-1.4406-1.4406h-0.12187l-0.74844 0.74844-0.5375-0.54062 0.92656-0.92656v-0.12188l-1.4406-1.4375h-0.11718zm-36.109 0.11719c-0.0742 0-0.13282 0.0633-0.13282 0.1375v0.32812c0 0.0781 0.0586 0.13594 0.13282 0.13594h3.4562c0.0742 0 0.13281-0.0579 0.13281-0.13594v-0.32812c0-0.0742-0.0586-0.1375-0.13281-0.1375h-3.4562zm29.027 1.0828-1.4375 1.5v0.12031l2.2781 2.2781h0.12032l1.4422-1.5v-0.11718l-2.2813-2.2812h-0.12187zm-11.089 0.0578c-0.0703 0-0.12969 0.0633-0.12969 0.13751v0.32812c0 0.0742 0.0594 0.13594 0.12969 0.13594h3.4609c0.0703 0 0.12813-0.0617 0.12813-0.13594v-0.32812c0-0.0742-0.0578-0.13749-0.12813-0.13751h-3.4609zm-31.277 1.0797a0.30003 0.30003 0 0 0-0.0875 0.0172 0.30003 0.30003 0 0 0-0.14218 0.0969l-7.0312 7.0312a0.30003 0.30003 0 0 0-0.0859 0.11406 0.30003 0.30003 0 0 0-5e-3 9e-3 0.30003 0.30003 0 0 0-3e-3 5e-3 0.30003 0.30003 0 0 0-8e-3 0.0234 0.30003 0.30003 0 0 0-3e-3 8e-3 0.30003 0.30003 0 0 0-8e-3 0.11094v3.6453a0.30003 0.30003 0 0 0 0.0141 0.13282 0.30003 0.30003 0 0 0 0.10312 0.14844l0.77344 0.77187a0.30003 0.30003 0 0 0 0.19844 0.12187 0.30005 0.30005 0 0 0 0.025 3e-3 0.30003 0.30003 0 0 0 6e-3 0 0.30005 0.30005 0 0 0 0.025 2e-3h0.30312c0.0121 0.0682 0.062 0.12188 0.13125 0.12188h2.0031c0.0742 0 0.1375-0.0633 0.1375-0.14531v-0.55469c0-0.0781-0.0633-0.14062-0.1375-0.14062h-2.0031c-0.0695 0-0.11949 0.0528-0.13125 0.11874h-0.18281l-0.66406-0.66562v-3.4688l6.9031-6.9031h14.934a0.30003 0.30003 0 0 0 0.05-3e-3h1.6797c0.0742 0 0.13281-0.0586 0.13281-0.13281v-0.33126c0-0.0742-0.0586-0.13281-0.13281-0.13281h-1.7297-15.019a0.30003 0.30003 0 0 0-0.0469-3e-3zm31.277 3e-3c-0.0703 0-0.12969 0.0586-0.12969 0.13281v0.33125c0 0.0742 0.0594 0.13281 0.12969 0.13281h3.4609c0.0703 0 0.12813-0.0586 0.12813-0.13281v-0.33125c0-0.0742-0.0578-0.13281-0.12813-0.13281h-3.4609zm-12.008 0.96094c0.26561 0 0.47969 0.21484 0.47969 0.47656 0 0.26561-0.21408 0.47968-0.47969 0.47968-0.26563 0-0.48126-0.21407-0.48126-0.47968 0-0.26172 0.21563-0.47656 0.48126-0.47656zm3.0578 0c0.26563 0 0.48124 0.21484 0.48124 0.47656 0 0.26561-0.21561 0.47968-0.48124 0.47968-0.26562 0-0.47969-0.21407-0.47969-0.47968 0-0.26172 0.21407-0.47656 0.47969-0.47656zm3.4219 0c0.26172 0 0.47656 0.21484 0.47656 0.47656 0 0.26561-0.21484 0.47968-0.47656 0.47968-0.26564 0-0.47969-0.21407-0.47969-0.47968 0-0.26172 0.21405-0.47656 0.47969-0.47656zm3.1172 0c0.26562 0 0.48125 0.21484 0.48125 0.47656 0 0.26561-0.21563 0.47968-0.48125 0.47968-0.26563 0-0.47969-0.21407-0.47969-0.47968 0-0.26172 0.21406-0.47656 0.47969-0.47656zm-28.025 0.17344a0.30003 0.30003 0 0 0-0.13125 0.0344 0.30003 0.30003 0 0 0-8e-3 3e-3 0.30003 0.30003 0 0 0-5e-3 3e-3 0.30003 0.30003 0 0 0-0.0937 0.0812l-5.0359 5.0391a0.30003 0.30003 0 0 0-0.0703 0.075 0.30003 0.30003 0 0 0 0 2e-3 0.30003 0.30003 0 0 0 0 2e-3 0.30003 0.30003 0 0 0-6e-3 9e-3 0.30003 0.30003 0 0 0-9e-3 0.0156 0.30003 0.30003 0 0 0-2e-3 5e-3 0.30003 0.30003 0 0 0-0.011 0.0218 0.30003 0.30003 0 0 0-2e-3 6e-3 0.30003 0.30003 0 0 0-0.0187 0.1625v2.1062h-1.2422c-0.0781 0-0.14062 0.0633-0.14062 0.14531v0.55c0 0.082 0.0625 0.14531 0.14062 0.14531h2.0031c0.0742 0 0.1375-0.0633 0.1375-0.14531v-0.55c0-0.082-0.0633-0.14531-0.1375-0.14531h-0.16094v-2.0359l4.9203-4.925h14.097 1.7297c0.0742 0 0.13281-0.0586 0.13281-0.13281v-0.33125c0-0.0742-0.0586-0.13282-0.13281-0.13282h-1.6797a0.30003 0.30003 0 0 0-0.05-3e-3h-14.175a0.30003 0.30003 0 0 0-0.05-3e-3v-2e-3zm30.436 6e-3c-0.0703 0-0.12969 0.0586-0.12969 0.13281v0.33125c0 0.0742 0.0594 0.13281 0.12969 0.13281h3.4609c0.0703 0 0.12813-0.0586 0.12813-0.13281v-0.33125c0-0.0742-0.0578-0.13281-0.12813-0.13281h-3.4609zm-29.059 1.1344a0.30003 0.30003 0 0 0-0.0782 0.0125 0.30003 0.30003 0 0 0-5e-3 3e-3 0.30003 0.30003 0 0 0-0.0266 8e-3 0.30003 0.30003 0 0 0-0.0156 9e-3 0.30003 0.30003 0 0 0-0.011 5e-3 0.30003 0.30003 0 0 0-5e-3 3e-3 0.30003 0.30003 0 0 0-0.0922 0.0782l-0.175 0.175c-0.12918-0.0644-0.26906-0.10781-0.42344-0.10781-0.52736 0-0.95782 0.4289-0.95781 0.95624 0 0.1552 0.0443 0.29689 0.10937 0.42657l-0.47032 0.47187a0.30003 0.30003 0 0 0-0.0953 0.12344 0.30003 0.30003 0 0 0-3e-3 6e-3 0.30003 0.30003 0 0 0-3e-3 5e-3 0.30003 0.30003 0 0 0-8e-3 0.0234 0.30003 0.30003 0 0 0-3e-3 0.011 0.30003 0.30003 0 0 0-8e-3 0.10781v2.6156c-0.0683 0.012-0.12187 0.0624-0.12187 0.12812v2.0078c0 0.0742 0.0633 0.13594 0.14531 0.13594h0.55469c0.0781 0 0.14062-0.0617 0.14062-0.13594v-2.0078c0-0.0659-0.053-0.11628-0.11875-0.12812v-2.525l0.41407-0.41563c0.1293 0.0654 0.26908 0.11094 0.42344 0.11094 0.53124 0 0.96093-0.42968 0.96093-0.96094 0-0.15486-0.0467-0.2954-0.1125-0.425l0.11406-0.11406h12.717 1.7297c0.0742 0 0.13281-0.0579 0.13281-0.13594v-0.32812c0-0.0742-0.0586-0.1375-0.13281-0.1375h-3.4562c-8e-4 0-2e-3 2e-3 -3e-3 2e-3h-11.066a0.30003 0.30003 0 0 0-0.05-3e-3h-2e-3zm36.552 0.18594-0.92031 0.95781h-3.1078c-8e-4 -4e-5 -2e-3 -2e-3 -3e-3 -2e-3h-3.4609c-0.0703 0-0.12968 0.0633-0.12968 0.13751v0.32812c0 0.0742 0.0594 0.13594 0.12968 0.13594h3.4609 2.5891v0.0594l2.2812 2.2813h0.11719l1.4422-1.5v-0.12188l-2.2812-2.2766h-0.11718zm-61.141 0.47656c0.26564 0 0.47968 0.21406 0.47968 0.47969s-0.21404 0.48125-0.47968 0.48125c-0.26561 0-0.48125-0.21563-0.48125-0.48125 0-0.26563 0.21564-0.47969 0.48125-0.47969zm23.758 0c0.26563 0 0.47969 0.21406 0.47969 0.47969s-0.21406 0.48125-0.47969 0.48125c-0.26172 0-0.47656-0.21563-0.47656-0.48125 0-0.26563 0.21484-0.47969 0.47656-0.47969zm5.0953 0.47813a0.30003 0.30003 0 0 0-0.0891 0.0156 0.30003 0.30003 0 0 0-0.0218 9e-3 0.30003 0.30003 0 0 0-0.011 5e-3 0.30003 0.30003 0 0 0-0.11562 0.0922l-1.286 1.2875c-0.17545-0.22999-0.43952-0.3875-0.75156-0.3875-0.52735 0-0.95781 0.42969-0.95781 0.96094s0.43046 0.96094 0.95781 0.96094c0.10731 0 0.20527-0.0301 0.30156-0.0625v3.2375l-0.66562 0.66563h-0.24375c-0.0116-0.0668-0.0604-0.12188-0.12656-0.12188h-2.0078c-0.0742 0-0.13751 0.0657-0.13751 0.14375v0.55469c0 0.0781 0.0633 0.14062 0.13751 0.14062h2.0078c0.0655 0 0.11426-0.052 0.12656-0.11718h0.3125a0.30003 0.30003 0 0 0 0.17344-0.0218 0.30003 0.30003 0 0 0 2e-3 0 0.30003 0.30003 0 0 0 0.0125-6e-3 0.30003 0.30003 0 0 0 0.0125-6e-3 0.30003 0.30003 0 0 0 2e-3 -2e-3 0.30003 0.30003 0 0 0 0.1-0.0875l0.76719-0.76718a0.30003 0.30003 0 0 0 0.0937-0.10938 0.30003 0.30003 0 0 0 3e-3 -5e-3 0.30003 0.30003 0 0 0 0.0156-0.0375 0.30003 0.30003 0 0 0 0.0156-0.14062v-3.9297c0.0218-0.0678 0.0374-0.13749 0.0438-0.21093l1.4594-1.4578h8.4547 1.7297c0.0742 0 0.1328-0.0617 0.13281-0.13595v-0.32812c0-0.0742-0.0586-0.13748-0.13281-0.1375h-3.4562c-8e-4 0-2e-3 2e-3 -3e-3 2e-3h-6.8047a0.30003 0.30003 0 0 0-0.05-3e-3zm48.666 0.30312-1.6797 1.6797v0.12031l1.5 1.5h0.12188l1.6797-1.6797v-0.12032l-1.5-1.5h-0.12188zm-35.878 0.35937c0.26561 0 0.47969 0.21407 0.47969 0.47969s-0.21408 0.48126-0.47969 0.48126c-0.26563 0-0.48126-0.21564-0.48126-0.48126s0.21563-0.47968 0.48126-0.47969zm3.0578 0c0.26563 0 0.48124 0.21407 0.48124 0.47969s-0.21561 0.48126-0.48124 0.48126c-0.26562 0-0.47969-0.21564-0.47969-0.48126s0.21407-0.47968 0.47969-0.47969zm3.4219 0c0.26172 0 0.47656 0.21407 0.47656 0.47969s-0.21484 0.48126-0.47656 0.48126c-0.26564 0-0.47969-0.21564-0.47969-0.48126s0.21405-0.47968 0.47969-0.47969zm3.1172 0c0.26562 0 0.48125 0.21407 0.48125 0.47969s-0.21563 0.48126-0.48125 0.48126c-0.26563 0-0.47969-0.21564-0.47969-0.48126s0.21406-0.47968 0.47969-0.47969zm18.661 0.42188-2.2781 2.2766v0.12188l1.4375 1.5h0.12187l2.2813-2.2812v-0.11719l-1.4422-1.5h-0.12031zm-39.605 0.0562a0.30003 0.30003 0 0 0-0.12656 0.0328 0.30003 0.30003 0 0 0-0.011 5e-3 0.30003 0.30003 0 0 0-5e-3 3e-3 0.30003 0.30003 0 0 0-0.0922 0.0782l-0.175 0.175c-0.12937-0.0655-0.26896-0.1125-0.42344-0.1125-0.53126 0-0.96094 0.42969-0.96093 0.96094 0 0.53126 0.42967 0.96094 0.96093 0.96094 0.52734 0 0.95625-0.42968 0.95625-0.96094 0-0.15464-0.0447-0.2941-0.10937-0.42344l0.11562-0.11562h7.0141 1.7297c0.0742 0 0.13281-0.0617 0.13282-0.13594v-0.32813c0-0.0742-0.0586-0.1375-0.13282-0.1375h-3.4562c-8e-4 0-2e-3 2e-3 -3e-3 2e-3h-5.3625a0.30003 0.30003 0 0 0-0.0516-3e-3zm23.355 0c-0.0703 0-0.12969 0.0633-0.12969 0.13751v0.32812c0 0.0742 0.0594 0.13593 0.12969 0.13593h3.4609 0.78595l9.2453 9.2469a0.30003 0.30003 0 0 0 0.10156 0.0813 0.30003 0.30003 0 0 0 0.0218 9e-3 0.30003 0.30003 0 0 0 0.0125 5e-3 0.30003 0.30003 0 0 0 0.13437 0.0172h2.725l3.4219 3.4813h0.12187l2.1016-2.1016v-0.12187l-2.6422-2.5969v-1.4797l1.9813-1.9813v-0.12187l-1.5-1.5h-0.12031l-2.2813 2.2812v0.12188l1.3203 1.375v0.71562l-0.48124-0.47344h-0.12032l-1.7984 1.8016h-2.6359l-9.2344-9.2328a0.30003 0.30003 0 0 0-0.0828-0.0782 0.30003 0.30003 0 0 0-2e-3 0 0.30003 0.30003 0 0 0-3e-3 -2e-3 0.30003 0.30003 0 0 0-0.0219-0.0125 0.30003 0.30003 0 0 0-5e-3 -3e-3 0.30003 0.30003 0 0 0-0.0266-0.011 0.30003 0.30003 0 0 0-0.11249-0.0218 0.30003 0.30003 0 0 0-0.039 3e-3h-0.86407c-8e-4 -4e-5 -2e-3 -3e-3 -3e-3 -3e-3h-3.4609zm10.909 0.12344-2.0969 2.0969v0.12188l3.7187 3.6594h0.12032l2.0391-2.039v-0.12032l-3.6594-3.7188h-0.12187zm-60.898 0.2375c0.26563 1e-5 0.48126 0.21563 0.48126 0.48125 0 0.26563-0.21563 0.47968-0.48126 0.47968-0.26561 0-0.47969-0.21405-0.47969-0.47968 0-0.26562 0.21408-0.48125 0.47969-0.48125zm22.919 0c0.26564 1e-5 0.47969 0.21563 0.47969 0.48125 0 0.26563-0.21405 0.47968-0.47969 0.47968-0.26563 0-0.48124-0.21405-0.48124-0.47968 0-0.26562 0.21561-0.48125 0.48124-0.48125zm2.8828 0.30157c0.26172 0 0.47656 0.21406 0.47656 0.47968 0 0.26563-0.21484 0.48125-0.47656 0.48125-0.26562 0-0.48126-0.21561-0.48126-0.48125 0-0.26562 0.21564-0.47968 0.48126-0.47968zm2.5125 0.47812a0.30003 0.30003 0 0 0-0.0797 0.0125 0.30003 0.30003 0 0 0-8e-3 3e-3 0.30003 0.30003 0 0 0-0.0234 8e-3 0.30003 0.30003 0 0 0-0.0156 9e-3 0.30003 0.30003 0 0 0-0.011 5e-3 0.30003 0.30003 0 0 0-5e-3 3e-3 0.30003 0.30003 0 0 0-0.0922 0.0782l-1.8547 1.8547c-0.12937-0.0655-0.26896-0.1125-0.42344-0.1125-0.53126 0-0.96094 0.42967-0.96093 0.96094 0 0.53124 0.42967 0.96094 0.96093 0.96094 0.52734 0 0.95625-0.4297 0.95625-0.96094 0-0.15464-0.0447-0.29411-0.10937-0.42344l1.7953-1.7953h5.3344 1.7297c0.0742 0 0.13281-0.0617 0.13282-0.13593v-0.32813c0-0.0781-0.0586-0.1375-0.13282-0.1375h-3.4562c-8e-4 0-2e-3 2e-3 -3e-3 2e-3h-3.6828a0.30003 0.30003 0 0 0-0.0516-3e-3zm21.675 0c-0.0703 0-0.12969 0.0594-0.12969 0.1375v0.32812c0 0.0742 0.0594 0.13594 0.12969 0.13594h3.4609 0.24688l2.3438 2.3438v0.89375l-1.8609 1.8609v0.12031l2.6422 2.6016v1.5375l-1.9234 1.9203v0.12032l1.4422 1.4422h0.12032l2.2781-2.2813v-0.12187l-1.3172-1.3172v-0.70938l0.47656 0.46874h0.12187l2.1016-2.1016v-0.11718l-3.4812-3.4234v-0.97969a0.30003 0.30003 0 0 0-0.0125-0.12813 0.30003 0.30003 0 0 0-2e-3 -5e-3 0.30003 0.30003 0 0 0-9e-3 -0.0219 0.30003 0.30003 0 0 0-2e-3 -6e-3 0.30003 0.30003 0 0 0-0.011-0.0218 0.30003 0.30003 0 0 0-0.0828-0.0984l-2.4516-2.45a0.30003 0.30003 0 0 0-0.0828-0.0782 0.30003 0.30003 0 0 0-3e-3 0 0.30003 0.30003 0 0 0-3e-3 -3e-3 0.30003 0.30003 0 0 0-0.0219-0.0125 0.30003 0.30003 0 0 0-5e-3 -2e-3 0.30003 0.30003 0 0 0-0.0266-0.011 0.30003 0.30003 0 0 0-0.11094-0.0219h-2e-3a0.30003 0.30003 0 0 0-0.0375 3e-3h-0.325c-8e-4 -3e-5 -2e-3 -3e-3 -3e-3 -3e-3h-3.4609zm33.425 2e-3c-0.0742 0-0.13594 0.0664-0.13594 0.14843v0.93125h-1.3906c-0.0135-0.0664-0.0614-0.11875-0.13282-0.11875h-2.1094c-0.082 0-0.14531 0.0633-0.14531 0.14531v1.5109c0 0.0781 0.0633 0.14531 0.14531 0.14531h2.1094c0.082 0 0.14375-0.0672 0.14375-0.14531v-0.3375h1.5125c8e-4 3e-5 2e-3 2e-3 3e-3 2e-3h0.94219a0.60006 0.60006 0 0 0 5e-3 0v13.68h-0.0984c-0.0781 0-0.14063 0.0586-0.14063 0.13281v0.0453h-6.9531c-0.17616-0.21297-0.43232-0.35781-0.73125-0.35781-0.52735 0-0.95625 0.43047-0.95625 0.95781 0 0.53124 0.4289 0.96095 0.95625 0.96095 0.30007 0 0.55669-0.14589 0.73281-0.36095h6.9516v2.9266c0 0.0742 0.0625 0.13281 0.14063 0.13281h0.0984v2.5734l-9e-3 9e-3h-1.9141v2.7578h2.7625v-1.9094l0.12813-0.12812a0.60006 0.60006 0 0 0 0.18437-0.2375 0.60006 0.60006 0 0 0 0.0484-0.33125v-2.7344h0.0953c0.0781 0 0.14531-0.0586 0.14531-0.13281v-4.1719c0-0.0742-0.0672-0.1328-0.14531-0.1328h-0.0953v-13.68h0.94375c0.0742 0 0.13593-0.0664 0.13594-0.14844v-1.9844c0-0.082-0.0617-0.14843-0.13594-0.14843h-3.0906zm-62.175 0.71874c-0.52734 0-0.96094 0.42969-0.96094 0.96094s0.4336 0.96094 0.96094 0.96094c0.53124 0 0.96093-0.42969 0.96093-0.96094s-0.42969-0.96092-0.96093-0.96094zm0 0.48126c0.26563 0 0.47968 0.21406 0.47968 0.47968 0 0.26563-0.21405 0.48125-0.47968 0.48125-0.26562 0-0.48125-0.21562-0.48125-0.48125 0-0.26562 0.21563-0.47968 0.48125-0.47968zm15.136 0c-0.0742 0-0.13593 0.0578-0.13593 0.12812v1.7094a0.30003 0.30003 0 0 0 0 0.0218v1.7297 4.8109c-0.38144 0.12732-0.66094 0.4754-0.66094 0.9 0 0.53126 0.42969 0.96094 0.96094 0.96094 0.53124 0 0.96093-0.42968 0.96093-0.96094 0-0.42502-0.2789-0.77302-0.66093-0.9v-4.8078c4e-5 -8e-4 2e-3 -2e-3 2e-3 -3e-3v-3.4609c0-0.0703-0.0633-0.12812-0.13751-0.12812h-0.32813zm1.1406 0c-0.0742 0-0.13594 0.0578-0.13594 0.12812v3.4609c0 0.0742 0.0617 0.12969 0.13594 0.12969h0.32812c0.0742 0 0.13751-0.0555 0.13751-0.12969v-3.4609c0-0.0703-0.0633-0.12812-0.13751-0.12812h-0.32812zm1.1375 0c-0.0742 0-0.13282 0.0578-0.13282 0.12812v3.4609c0 0.0742 0.0586 0.12969 0.13282 0.12969h0.33125c0.0742 0 0.1375-0.0555 0.1375-0.12969v-3.4609c0-0.0703-0.0633-0.12812-0.1375-0.12812h-0.33125zm1.1406 0c-0.0742 0-0.1328 0.0578-0.1328 0.12812v3.4609c0 0.0742 0.0586 0.12969 0.1328 0.12969h0.33125c0.0742 0 0.13282-0.0555 0.13282-0.12969v-3.4609c0-0.0703-0.0586-0.12812-0.13282-0.12812h-0.33125zm1.0812 0c-0.0742 0-0.13593 0.0578-0.13593 0.12812v1.7094a0.30003 0.30003 0 0 0 0 0.0218v1.7297 1.2719l-0.53907 0.57031v-0.79531c0-0.0742-0.0664-0.13594-0.14843-0.13594h-1.9844c-0.082 0-0.14844 0.0617-0.14844 0.13594v3.0906c0 0.0742 0.0664 0.13281 0.14844 0.13281h1.9844c0.082 0 0.14843-0.0586 0.14843-0.13281v-1.4219l1.0281-1.0875a0.30003 0.30003 0 0 0 0.0922-0.12813 0.30003 0.30003 0 0 0 2e-3 -3e-3 0.30003 0.30003 0 0 0 8e-3 -0.025 0.30003 0.30003 0 0 0 3e-3 -3e-3 0.30003 0.30003 0 0 0 8e-3 -0.11875v-1.3469c4e-5 -8e-4 2e-3 -2e-3 2e-3 -3e-3v-3.4609c0-0.0703-0.0633-0.12812-0.1375-0.12812h-0.32812-2e-3zm1.1406 0c-0.0742 0-0.13594 0.0578-0.13594 0.12812v1.7094a0.30003 0.30003 0 0 0 0 0.0218v1.7297 4.7469l-4.0859 4.0859h-1.9453c-0.082 0-0.14844 0.0586-0.14844 0.13281v0.94687h-0.48125v-0.94687c0-0.0742-0.0664-0.13281-0.14844-0.13281h-1.9844c-0.082 0-0.14844 0.0586-0.14844 0.13281v3.0891c0 0.0742 0.0664 0.1375 0.14844 0.1375h1.9844c0.082 0 0.14844-0.0633 0.14844-0.1375v-0.94219h0.48125v0.94219c0 0.0742 0.0664 0.1375 0.14844 0.1375h1.9844c0.082 0 0.14844-0.0633 0.14844-0.1375v-2.5609l4.3719-4.3734a0.30003 0.30003 0 0 0 0.0782-0.0828 0.30003 0.30003 0 0 0 3e-3 -3e-3 0.30003 0.30003 0 0 0 0.0125-0.0218 0.30003 0.30003 0 0 0 3e-3 -5e-3 0.30003 0.30003 0 0 0 9e-3 -0.0218 0.30003 0.30003 0 0 0 2e-3 -6e-3 0.30003 0.30003 0 0 0 8e-3 -0.0234 0.30003 0.30003 0 0 0 2e-3 -5e-3 0.30003 0.30003 0 0 0 2e-3 -3e-3 0.30003 0.30003 0 0 0 9e-3 -0.11875v-4.8266c4e-5 -8e-4 2e-3 -2e-3 2e-3 -3e-3v-3.4609c0-0.0703-0.0633-0.12812-0.1375-0.12812h-0.32812-2e-3zm1.1375 0c-0.0742 0-0.13282 0.0578-0.13282 0.12812v1.7094a0.30003 0.30003 0 0 0 0 0.0218v1.7297 8.8656c-0.0255-0.0185-0.0551-0.0328-0.0906-0.0328h-1.9797c-0.082 0-0.14843 0.0586-0.14843 0.13282v3.089c0 0.0742 0.0664 0.13751 0.14843 0.13751h1.9797c0.082 0 0.14844-0.0633 0.14844-0.13751v-1.3609a0.30003 0.30003 0 0 0 0.54218-0.18125v-10.509c4e-5 -8e-4 2e-3 -2e-3 2e-3 -3e-3v-3.4609c0-0.0703-0.0633-0.12812-0.1375-0.12812h-0.33125zm1.1406 0c-0.0742 0-0.1328 0.0578-0.1328 0.12812v1.7094a0.30003 0.30003 0 0 0 0 0.0218v1.7297 4.8328a0.30003 0.30003 0 0 0 0.0172 0.14375 0.30003 0.30003 0 0 0 5e-3 0.0125 0.30003 0.30003 0 0 0 3e-3 6e-3 0.30003 0.30003 0 0 0 0.0953 0.12032l4.4375 4.389v2.1063a0.30003 0.30003 0 0 0 0 0.0859v0.3328a0.30003 0.30003 0 0 0 2e-3 0.0953v0.37031a0.30003 0.30003 0 0 0 0 0.11094v0.37031a0.30003 0.30003 0 0 0 0 0.10938v0.19687c-2e-5 8e-4 -2e-3 2e-3 -2e-3 3e-3v0.18437a0.30003 0.30003 0 0 0 0 0.0859v0.0328a0.30003 0.30003 0 0 0 0 0.0844v2.7016c0 0.0742 0.0664 0.1375 0.14844 0.1375h1.9844c0.082 0 0.14843-0.0633 0.14843-0.1375v-2.7a0.30003 0.30003 0 0 0 0-0.0891v-0.0282a0.30003 0.30003 0 0 0 0-0.0891v-0.18281-0.20781a0.30003 0.30003 0 0 0 0-0.0906v-0.39062a0.30003 0.30003 0 0 0 0-0.0891v-0.39062a0.30003 0.30003 0 0 0 0-0.0906v-0.32813a0.30003 0.30003 0 0 0 0-0.0891v-2.6437c0-0.0742-0.0664-0.13282-0.14843-0.13282h-1.9594l-4.1312-4.0875v-6.475a0.30003 0.30003 0 0 0-3e-3 -0.0453v-1.6859c0-0.0703-0.0586-0.12812-0.13282-0.12812h-0.33125zm1.1406 0c-0.0742 0-0.13281 0.0578-0.13281 0.12812v3.4609c0 0.0742 0.0586 0.12969 0.13281 0.12969h0.33125c0.0742 0 0.13281-0.0555 0.13281-0.12969v-3.4609c0-0.0703-0.0586-0.12812-0.13281-0.12812h-0.33125zm2.2812 0c-0.0742 0-0.1375 0.0578-0.1375 0.12812v0.3125a0.30003 0.30003 0 0 0 0 0.0828v0.33906a0.30003 0.30003 0 0 0 0 0.0828v0.39218a0.30003 0.30003 0 0 0 0 0.0844v0.39687a0.30003 0.30003 0 0 0 0 0.0844v0.39688a0.30003 0.30003 0 0 0 0 0.0828v0.39532a0.30003 0.30003 0 0 0 0 0.0859v0.15782a0.30003 0.30003 0 0 0 0 0.0844v0.48281c0 0.0742 0.0633 0.12969 0.1375 0.12969h0.32812c0.0742 0 0.13594-0.0555 0.13594-0.12969v-0.22656h0.53906v0.22656c0 0.0742 0.0633 0.12969 0.13751 0.12969h0.32812c0.0742 0 0.13593-0.0555 0.13593-0.12969v-0.48125a0.30003 0.30003 0 0 0 0-0.0891v-0.15312a0.30003 0.30003 0 0 0 0-0.0891v-0.3922a0.30003 0.30003 0 0 0 0-0.089v-0.31719h1.786c0.0409 0.0501 0.0843 0.0935 0.13437 0.13437v1.4891h-1.5453c-0.0742 0-0.13593 0.0664-0.13593 0.14844v1.9844c0 0.0781 0.0617 0.14376 0.13593 0.14376h3.0906c0.0742 0 0.1328-0.0656 0.1328-0.14376v-1.9844c0-0.082-0.0586-0.14844-0.1328-0.14844h-0.34532v-1.4906c0.21506-0.17614 0.36094-0.43273 0.36094-0.73281 0-0.52733-0.42968-0.95625-0.96094-0.95625-0.29895 0-0.55509 0.14329-0.73125 0.35625h-1.7891v-0.25156a0.30003 0.30003 0 0 0 0-0.0906v-0.30781c0-0.0703-0.0617-0.12812-0.13593-0.12812h-0.32812c-0.0742 0-0.13751 0.0578-0.13751 0.12812v0.0516h-0.53906v-0.0516c0-0.0703-0.0617-0.12812-0.13594-0.12812h-0.32812zm-31.852 0.3c-0.082 0-0.14532 0.0633-0.14532 0.13749v2.0078c0 0.0742 0.0633 0.13593 0.14532 0.13593h0.55468c0.0781 0 0.14063-0.0617 0.14063-0.13593v-2.0078c0-0.0742-0.0625-0.13749-0.14063-0.13749h-0.55468zm1.4375 0c-0.0781 0-0.14062 0.0633-0.14062 0.13749v2.0078c0 0.0742 0.0625 0.13593 0.14062 0.13593h0.55469c0.0781 0 0.14374-0.0617 0.14374-0.13593v-2.0078c0-0.0742-0.0657-0.13749-0.14374-0.13749h-0.55469zm16.956 0.12187c-0.52735 0-0.95625 0.42892-0.95625 0.95625 0 0.53126 0.4289 0.96093 0.95625 0.96093 0.53125 0 0.96093-0.42967 0.96093-0.96093 0-0.52733-0.42968-0.95625-0.96093-0.95625zm0 0.47969c0.26561 0 0.48125 0.21484 0.48125 0.47656 0 0.26563-0.21564 0.48124-0.48125 0.48124-0.26563 0-0.47969-0.21561-0.47969-0.48124 0-0.26172 0.21406-0.47656 0.47969-0.47656zm17.583 0c0.26564 0 0.47968 0.21484 0.47968 0.47656 0 0.26563-0.21404 0.48124-0.47968 0.48124-0.26561 0-0.48125-0.21561-0.48125-0.48124 0-0.26172 0.21564-0.47656 0.48125-0.47656zm-26.039 0.23906c0.26172 0 0.47656 0.21405 0.47656 0.47969 0 0.26561-0.21484 0.48125-0.47656 0.48125-0.26562 0-0.48126-0.21564-0.48126-0.48125 0-0.26564 0.21564-0.47969 0.48126-0.47969zm-5.625 0.65938c-0.0742 0-0.1375 0.0633-0.1375 0.14531v0.55c0 0.082 0.0633 0.14531 0.1375 0.14531h2.0078c0.0742 0 0.13593-0.0633 0.13593-0.14531v-0.55c0-0.082-0.0617-0.14531-0.13593-0.14531h-2.0078zm-15.617 0.30156c-0.53125 0-0.96094 0.42968-0.96094 0.96093 0 0.52735 0.42969 0.95625 0.96094 0.95625s0.96093-0.4289 0.96093-0.95625c0-0.53125-0.42968-0.96093-0.96093-0.96093zm0 0.47968c0.26563 0 0.47969 0.21564 0.47969 0.48125 0 0.26172-0.21406 0.47656-0.47969 0.47656-0.26562 0-0.48125-0.21484-0.48125-0.47656 0-0.26561 0.21563-0.48125 0.48125-0.48125zm8.3594 0.59844c-0.0781 0-0.14062 0.0657-0.14062 0.14375v0.55469c0 0.0781 0.0625 0.14062 0.14062 0.14062h2.0031c0.0742 0 0.1375-0.0625 0.1375-0.14062v-0.55469c0-0.0781-0.0633-0.14375-0.1375-0.14375h-2.0031zm11.589 0.17968c-0.082 0-0.14844 0.0617-0.14844 0.13595v2.6844h-2.0484c-0.0123-0.0652-0.061-0.11719-0.12657-0.11719h-2.0078c-0.0742 0-0.1375 0.0625-0.1375 0.14063v0.55468c0 0.0781 0.0633 0.14376 0.1375 0.14376h2.0078c0.0661 0 0.11497-0.0551 0.12657-0.12188h3.1344a0.30003 0.30003 0 0 0 0.2422-0.061h0.80468c0.082 0 0.14844-0.0586 0.14844-0.13281v-3.0906c0-0.0742-0.0664-0.13594-0.14844-0.13594h-1.9844zm5.0984 0c-0.0781 0-0.14531 0.0617-0.14531 0.13595v3.0906c0 0.0742 0.0672 0.13283 0.14531 0.13281h1.9844c0.082 0 0.14844-0.0586 0.14844-0.13281v-3.0906c0-0.0742-0.0664-0.13595-0.14844-0.13595h-1.9844zm35.555 0.17969c-0.53124 0-0.96095 0.42969-0.96095 0.96095 0 0.53124 0.42971 0.96093 0.96095 0.96093 0.52733 0 0.96093-0.42969 0.96093-0.96093 0-0.53126-0.4336-0.96095-0.96093-0.96095zm0 0.47969c0.26561 2e-5 0.47968 0.21563 0.47968 0.48126 0 0.26562-0.21407 0.47968-0.47968 0.47968-0.26564 0-0.48126-0.21404-0.48126-0.47968 0-0.26563 0.21562-0.48126 0.48126-0.48126zm-19.563 0.30157h1.1406-1.1406zm-12.63 0.17969c-0.082 0-0.14844 0.0617-0.14844 0.13593v3.0906c0 0.0742 0.0664 0.1328 0.14844 0.1328h1.9812c0.082 0 0.14844-0.0586 0.14844-0.1328v-3.0906c0-0.0742-0.0664-0.13593-0.14844-0.13593h-1.9812zm-12.792 0.12031c-0.0742 0-0.1375 0.0625-0.1375 0.14062v0.55469c0 0.082 0.0633 0.14531 0.1375 0.14531h2.0078c0.0742 0 0.13593-0.0633 0.13593-0.14531v-0.55469c0-0.0781-0.0617-0.14062-0.13593-0.14062h-2.0078zm-10.578 0.30156c-0.52735 0-0.95781 0.42892-0.95781 0.95625 0 0.53126 0.43046 0.96093 0.95781 0.96093 0.53124 0 0.96094-0.42967 0.96094-0.96093 0-0.52733-0.4297-0.95625-0.96094-0.95625zm36 0h1.1406-1.1406zm-36 0.47969c0.26563 0 0.47969 0.21484 0.47969 0.47656 0 0.26563-0.21406 0.48124-0.47969 0.48124-0.26172 0-0.47656-0.21561-0.47656-0.48124 0-0.26172 0.21484-0.47656 0.47656-0.47656zm3.3203 0.66093c-0.0781 0-0.14062 0.0625-0.14062 0.14063v0.55468c0 0.0781 0.0625 0.14376 0.14062 0.14376h2.0031c0.0742 0 0.1375-0.0656 0.1375-0.14376v-0.55468c0-0.0781-0.0633-0.14063-0.1375-0.14063h-2.0031zm34.359 0.41719c-0.59375 0-1.0781 0.48516-1.0781 1.0828 0 0.59375 0.48438 1.0781 1.0781 1.0781 0.59766 0 1.0812-0.48438 1.0812-1.0781 0-0.59765-0.48359-1.0828-1.0812-1.0828zm40.5 0.71875c-0.52734 0-0.95782 0.42968-0.95782 0.96093 0 0.42408 0.2791 0.77227 0.65782 0.9v5.7016h-0.39531c-0.0781 0-0.14531 0.0586-0.14531 0.13281v4.1719c0 0.0742 0.0672 0.13281 0.14531 0.13281h0.0953v2.6078c-0.6465 0.11416-1.1391 0.6738-1.1391 1.3531 0 0.76172 0.61796 1.3797 1.3797 1.3797s1.3828-0.61797 1.3828-1.3797c0-0.38882-0.16367-0.73841-0.42344-0.98905v-2.9719h0.0984c0.0781 0 0.14531-0.0586 0.14531-0.13281v-4.1719c0-0.0742-0.0672-0.13281-0.14531-0.13281h-0.39844v-5.7016c0.38131-0.12738 0.66094-0.47549 0.66094-0.9 0-0.53125-0.42969-0.96093-0.96094-0.96093zm-59.609 0.12188c-0.082 0-0.14844 0.0586-0.14844 0.13281v3.0938c0 0.0742 0.0664 0.13281 0.14844 0.13281h1.9844c0.082 0 0.14844-0.0586 0.14844-0.13281v-3.0938c0-0.0742-0.0664-0.13281-0.14844-0.13281h-1.9844zm-15.25 0.12031c-0.0781 0-0.14062 0.0625-0.14062 0.14062v0.55469c0 0.0781 0.0625 0.14531 0.14062 0.14531h2.0031c0.0742 0 0.1375-0.0672 0.1375-0.14531v-0.55469c0-0.0781-0.0633-0.14062-0.1375-0.14062h-2.0031zm-8.3594 0.0594c-0.53125 0-0.96094 0.42969-0.96094 0.96094 0 0.53124 0.42969 0.96093 0.96094 0.96093s0.96093-0.42969 0.96093-0.96093c0-0.53126-0.42968-0.96094-0.96093-0.96094zm12.742 0c-0.0781 0-0.14062 0.0617-0.14062 0.13594v2.0078c0 0.0742 0.0625 0.13751 0.14062 0.13751h0.55469c0.0781 0 0.14374-0.0633 0.14374-0.13751v-2.0078c0-0.0742-0.0657-0.13594-0.14374-0.13594h-0.55469zm1.3828 0c-0.082 0-0.14531 0.0617-0.14531 0.13594v2.0078c0 0.0742 0.0633 0.13751 0.14531 0.13751h0.55469c0.0781 0 0.14062-0.0633 0.14062-0.13751v-2.0078c0-0.0742-0.0625-0.13594-0.14062-0.13594h-0.55469zm69.094 0.17968c0.26563 0 0.47969 0.21406 0.47969 0.47969 0 0.26562-0.21406 0.48125-0.47969 0.48125-0.26171 0-0.47656-0.21563-0.47656-0.48125 0-0.26563 0.21485-0.47969 0.47656-0.47969zm-83.219 0.3c0.26563 0 0.47969 0.21562 0.47969 0.48126 0 0.26562-0.21406 0.47968-0.47969 0.47968-0.26562 0-0.48125-0.21406-0.48125-0.47968 0-0.26564 0.21563-0.48126 0.48125-0.48126zm56.339 0.0594c-0.53125 0-0.96093 0.42969-0.96093 0.96094s0.42968 0.96094 0.96093 0.96094c0.53124 0 0.96094-0.42969 0.96094-0.96094s-0.4297-0.96094-0.96094-0.96094zm0 0.47969c0.26563 1e-5 0.48125 0.21563 0.48125 0.48125 0 0.26563-0.21562 0.47968-0.48125 0.47968s-0.47969-0.21404-0.47969-0.47968c0-0.26562 0.21406-0.48125 0.47969-0.48125zm-11.203 0.17969c-0.0742 0-0.13593 0.0664-0.13593 0.14844v1.9844c0 0.082 0.0617 0.14843 0.13593 0.14843h3.0906c0.0742 0 0.1328-0.0664 0.1328-0.14843v-1.9844c0-0.082-0.0586-0.14844-0.1328-0.14844h-3.0906zm-13.156 0.12188c0.26563 0 0.48124 0.21406 0.48124 0.47968 0 0.26563-0.21561 0.48125-0.48124 0.48125-0.26562 0-0.47969-0.21561-0.47969-0.48125 0-0.26562 0.21407-0.47968 0.47969-0.47968zm-3.4172 0.35936c-0.53125 0-0.96093 0.42969-0.96093 0.96095 0 0.53125 0.42968 0.96093 0.96093 0.96093 0.52735 0 0.95625-0.42968 0.95625-0.96093 0-0.53126-0.4289-0.96095-0.95625-0.96095zm57.477 0c-0.52735 0-0.95781 0.42969-0.95781 0.96095 0 0.42405 0.27912 0.77069 0.65781 0.89843v3.7219h-0.39531c-0.0781 0-0.14531 0.0586-0.14531 0.13281v4.1719c0 0.0742 0.0672 0.13281 0.14531 0.13281h0.0953v3.0422c-0.2198 0.24425-0.35781 0.56417-0.35781 0.91874 0 0.76172 0.61796 1.3797 1.3797 1.3797s1.3781-0.61797 1.3781-1.3797c0-0.70037-0.52385-1.2708-1.2-1.3594v-2.6016h0.0984c0.0781 0 0.14063-0.0586 0.14063-0.13281v-4.1719c0-0.0742-0.0625-0.13281-0.14063-0.13281h-0.39844v-3.7203c0.38143-0.12732 0.66094-0.47542 0.66094-0.9 0-0.53126-0.4297-0.96095-0.96094-0.96095zm-57.477 0.47969c0.26172 0 0.47656 0.21563 0.47656 0.48126 0 0.26561-0.21484 0.47969-0.47656 0.47969-0.26562 0-0.48125-0.21408-0.48125-0.47969 0-0.26563 0.21563-0.48126 0.48125-0.48126zm57.477 0c0.26563 0 0.47969 0.21563 0.47969 0.48126 0 0.26561-0.21406 0.47969-0.47969 0.47969-0.26172 0-0.47656-0.21408-0.47656-0.47969 0-0.26563 0.21484-0.48126 0.47656-0.48126zm-26.88 0.12188-2.0969 2.0969v0.12188l3.6562 3.7188h0.12031l2.1016-2.0984v-0.12032l-3.6594-3.7188h-0.12188zm-53.672 1.1984c-0.082 0-0.14844 0.0586-0.14844 0.13282v3.0938c0 0.0742 0.0664 0.13281 0.14844 0.13281h1.9844c0.082 0 0.14843-0.0586 0.14843-0.13281v-3.0938c0-0.0742-0.0664-0.13282-0.14843-0.13282h-1.9844zm50.731 1.0203-2.2781 2.2812v0.12031l1.4375 1.4375h0.12187l2.2812-2.2766v-0.12187l-1.4422-1.4406h-0.12031zm-32.789 0.42188c-0.082 0-0.14844 0.0586-0.14844 0.13281v3.0891c0 0.0742 0.0664 0.1375 0.14844 0.1375h1.9844c0.082 0 0.14844-0.0633 0.14844-0.1375v-3.0891c0-0.0742-0.0664-0.13281-0.14844-0.13281h-1.9844zm15.777 0c-0.0781 0-0.14375 0.0586-0.14375 0.13281v3.0891c0 0.0742 0.0656 0.1375 0.14375 0.1375h1.9844c0.082 0 0.14844-0.0633 0.14844-0.1375v-3.0891c0-0.0742-0.0664-0.13281-0.14844-0.13281h-1.9844zm49.016 2.3391c-0.0781 0-0.14063 0.0586-0.14063 0.13281v4.1719c0 0.0742 0.0625 0.13281 0.14063 0.13281h1.3953c0.0781 0 0.14374-0.0586 0.14374-0.13281v-4.1719c0-0.0742-0.0656-0.13281-0.14374-0.13281h-1.3953zm-16.344 0.30156c0.2656 0 0.48124 0.21484 0.48124 0.47656 0 0.26562-0.21564 0.47969-0.48124 0.47969-0.26172 0-0.47656-0.21407-0.47656-0.47969 0-0.26172 0.21484-0.47656 0.47656-0.47656zm-51.777 1.0188c-1.2617 0-2.2813 1.0203-2.2813 2.2781 0 1.2617 1.0195 2.2813 2.2813 2.2813 0.84194 0 1.5684-0.46171 1.9625-1.1422h1.7062c8e-4 4e-5 2e-3 2e-3 3e-3 2e-3h0.48594a0.30003 0.30003 0 0 0 0.0844 0h1.8969a0.30003 0.30003 0 0 0 0.0844 0h0.54219c8e-4 0 2e-3 -2e-3 3e-3 -2e-3h0.55157v0.40781c0 0.0742 0.0664 0.13281 0.14843 0.13281h1.9797c0.082 0 0.14844-0.0586 0.14844-0.13281v-3.0906c0-0.0742-0.0664-0.13595-0.14844-0.13595h-1.9797c-0.082 0-0.14843 0.0617-0.14843 0.13595v0.40312h-1.0953a0.30003 0.30003 0 0 0-0.05-5e-3 0.30003 0.30003 0 0 0-0.039 5e-3h-1.8922a0.30003 0.30003 0 0 0-0.05-5e-3 0.30003 0.30003 0 0 0-0.039 5e-3h-2.1953c-0.39472-0.67687-1.1192-1.1375-1.9594-1.1375zm12.566 0.59843c-0.082 0-0.14844 0.0617-0.14844 0.13595v3.0906c0 0.0742 0.0664 0.13281 0.14844 0.13281h1.9844c0.082 0 0.14843-0.0586 0.14843-0.13281v-0.40313a0.30003 0.30003 0 0 0 0.0547-5e-3h0.55625c8e-4 4e-5 2e-3 2e-3 3e-3 2e-3h3.0938c8e-4 0 2e-3 -2e-3 3e-3 -2e-3h0.55157v0.46563c0 0.0742 0.0656 0.1375 0.14374 0.1375h1.9844c0.082 0 0.14844-0.0633 0.14844-0.1375v-3.0891c0-0.0742-0.0664-0.13281-0.14844-0.13281h-1.9844c-0.0781 0-0.14374 0.0586-0.14374 0.13281v0.34375h-4.2172a0.30003 0.30003 0 0 0-0.0453-5e-3v-0.39844c0-0.0742-0.0664-0.13593-0.14843-0.13594h-1.9844zm-12.566 0.96095c0.39844 0 0.71874 0.32421 0.71874 0.71874 0 0.39844-0.3203 0.72188-0.71874 0.72188s-0.72344-0.32344-0.72344-0.72188c0-0.39453 0.325-0.71874 0.72344-0.71874zm69.961 4.1406c-0.76562 0-1.3828 0.6164-1.3828 1.3781s0.61719 1.3797 1.3828 1.3797c0.76172 0 1.3781-0.61797 1.3781-1.3797s-0.6164-1.3781-1.3781-1.3781zm-66.289 0.53907c-0.0742 0-0.13282 0.0664-0.13282 0.14843v1.9844c0 0.082 0.0586 0.14844 0.13282 0.14844h3.0938c0.0742 0 0.13281-0.0664 0.13281-0.14844v-1.9844c0-0.082-0.0586-0.14843-0.13281-0.14843h-3.0938zm11.641 0c-0.0742 0-0.13281 0.0664-0.13281 0.14843v1.9844c0 0.082 0.0586 0.14844 0.13281 0.14844h3.0938c0.0742 0 0.13281-0.0664 0.13281-0.14844v-1.9844c0-0.082-0.0586-0.14843-0.13281-0.14843h-3.0938zm43.847 0c0.46096 0 0.84064 0.37421 0.84064 0.83905s-0.37968 0.84063-0.84064 0.84063c-0.46484 0-0.83905-0.37579-0.83905-0.84063s0.37421-0.83905 0.83905-0.83905zm3.5984 0c0.46484 0 0.83907 0.37421 0.83907 0.83905s-0.37423 0.84063-0.83907 0.84063c-0.46092 0-0.84062-0.37579-0.84062-0.84063s0.3797-0.83905 0.84062-0.83905zm3.6016 0c0.46484 0 0.83907 0.37421 0.83907 0.83905s-0.37423 0.84063-0.83907 0.84063-0.84062-0.37579-0.84062-0.84063 0.37578-0.83905 0.84062-0.83905zm3.6016 0c0.46094 0 0.83907 0.37421 0.83907 0.83905s-0.37813 0.84063-0.83907 0.84063c-0.46484 0-0.84375-0.37579-0.84375-0.84063s0.37891-0.83905 0.84375-0.83905zm-61.203 0.17968c-0.52735 0-0.9578 0.42968-0.9578 0.96094 0 0.53125 0.43045 0.96094 0.9578 0.96094 0.53125 0 0.96094-0.42969 0.96094-0.96094 0-0.53126-0.42969-0.96094-0.96094-0.96094zm4.5625 0c-0.53127 0-0.96095 0.42968-0.96095 0.96094 0 0.53125 0.42968 0.96094 0.96095 0.96094 0.52733 0 0.95625-0.42969 0.95625-0.96094 0-0.53126-0.42892-0.96094-0.95625-0.96094zm-4.5625 0.47968c0.26564 0 0.47969 0.21563 0.47969 0.48126s-0.21405 0.47969-0.47969 0.47969c-0.26563 0-0.48124-0.21407-0.48124-0.47969 0-0.26563 0.21561-0.48126 0.48124-0.48126zm4.5625 0c0.26561 0 0.47969 0.21563 0.47969 0.48126s-0.21408 0.47969-0.47969 0.47969c-0.26563 0-0.48126-0.21407-0.48126-0.47969 0-0.26563 0.21563-0.48126 0.48126-0.48126zm21.359 0.89844c-0.79687 0-1.4422 0.64532-1.4422 1.4422 0 0.79686 0.64533 1.4406 1.4422 1.4406 0.79297 0 1.4375-0.64376 1.4375-1.4406 0-0.79688-0.64453-1.4422-1.4375-1.4422zm3.5969 0c-0.79297 0-1.4375 0.64532-1.4375 1.4422 0 0.79686 0.64454 1.4406 1.4375 1.4406 0.79687 0 1.4422-0.64376 1.4422-1.4406 0-0.79688-0.64531-1.4422-1.4422-1.4422zm3.6016 0c-0.79688 0-1.4406 0.64532-1.4406 1.4422 0 0.79686 0.64375 1.4406 1.4406 1.4406 0.79687 0 1.4422-0.64376 1.4422-1.4406 0-0.79688-0.64532-1.4422-1.4422-1.4422zm3.6016 0c-0.79687 0-1.4406 0.64532-1.4406 1.4422 0 0.79686 0.64377 1.4406 1.4406 1.4406 0.79297 0 1.4375-0.64376 1.4375-1.4406 0-0.79688-0.64453-1.4422-1.4375-1.4422zm3.5984 0c-0.79297 0-1.4375 0.64532-1.4375 1.4422 0 0.79686 0.64453 1.4406 1.4375 1.4406 0.79687 0 1.4406-0.64376 1.4406-1.4406 0-0.79688-0.64375-1.4422-1.4406-1.4422zm-14.398 0.72344c0.39844 0 0.71875 0.32032 0.71875 0.71876 0 0.39842-0.32031 0.71874-0.71875 0.71874-0.39842 0-0.71875-0.32032-0.71875-0.71874 0-0.39844 0.32032-0.71876 0.71875-0.71876zm3.5969 0c0.39844 0 0.72344 0.32032 0.72344 0.71876 0 0.39842-0.325 0.71874-0.72344 0.71874-0.39453 0-0.71876-0.32032-0.71876-0.71874 0-0.39844 0.32423-0.71876 0.71876-0.71876zm3.6016 0c0.39844 0 0.71875 0.32032 0.71875 0.71876 0 0.39842-0.32031 0.71874-0.71875 0.71874s-0.71876-0.32032-0.71876-0.71874c0-0.39844 0.32032-0.71876 0.71876-0.71876zm3.6016 0c0.39455 0 0.71875 0.32032 0.71875 0.71876 0 0.39842-0.32421 0.71874-0.71875 0.71874-0.39843 0-0.72188-0.32032-0.72188-0.71874 0-0.39844 0.32345-0.71876 0.72188-0.71876zm3.5984 0c0.39844 0 0.72188 0.32032 0.72188 0.71876 0 0.39842-0.32344 0.71874-0.72188 0.71874s-0.71876-0.32032-0.71876-0.71874c0-0.39844 0.32032-0.71876 0.71876-0.71876zm6.0156 0.83907c-0.0742 0-0.13281 0.0547-0.13281 0.125v4.7891c0 0.0703 0.0586 0.12499 0.13281 0.12499h3.0891c0.0742 0 0.13751-0.0547 0.13751-0.12499v-4.7891c0-0.0703-0.0633-0.125-0.13751-0.125h-3.0891zm15.839 0c-0.0742 0-0.1328 0.0547-0.1328 0.125v4.7891c0 0.0703 0.0586 0.12499 0.1328 0.12499h3.0906c0.0742 0 0.13593-0.0547 0.13593-0.12499v-4.7891c0-0.0703-0.0617-0.125-0.13593-0.125h-3.0906zm-36.253 2.039c-0.79687 0-1.4422 0.64532-1.4422 1.4422 0 0.79296 0.64533 1.4375 1.4422 1.4375 0.79297 0 1.4375-0.64453 1.4375-1.4375 0-0.79688-0.64453-1.4422-1.4375-1.4422zm3.5969 0c-0.79297 0-1.4375 0.64532-1.4375 1.4422 0 0.79296 0.64454 1.4375 1.4375 1.4375 0.79687 0 1.4422-0.64453 1.4422-1.4375 0-0.79688-0.64531-1.4422-1.4422-1.4422zm3.6016 0c-0.79688 0-1.4406 0.64532-1.4406 1.4422 0 0.79296 0.64375 1.4375 1.4406 1.4375 0.79687 0 1.4422-0.64453 1.4422-1.4375 0-0.79688-0.64532-1.4422-1.4422-1.4422zm3.6016 0c-0.79687 0-1.4406 0.64532-1.4406 1.4422 0 0.79296 0.64377 1.4375 1.4406 1.4375 0.79297 0 1.4375-0.64453 1.4375-1.4375 0-0.79688-0.64453-1.4422-1.4375-1.4422zm3.5984 0c-0.79297 0-1.4375 0.64532-1.4375 1.4422 0 0.79296 0.64453 1.4375 1.4375 1.4375 0.79687 0 1.4406-0.64453 1.4406-1.4375 0-0.79688-0.64375-1.4422-1.4406-1.4422zm-14.398 0.71876c0.39844 0 0.71875 0.325 0.71875 0.72344 0 0.39452-0.32031 0.71875-0.71875 0.71875-0.39842 0-0.71875-0.32423-0.71875-0.71875 0-0.39844 0.32032-0.72344 0.71875-0.72344zm3.5969 0c0.39844 0 0.72344 0.325 0.72344 0.72344 0 0.39452-0.325 0.71875-0.72344 0.71875-0.39453 0-0.71876-0.32423-0.71876-0.71875 0-0.39844 0.32423-0.72344 0.71876-0.72344zm3.6016 0c0.39844 0 0.71875 0.325 0.71875 0.72344 0 0.39452-0.32031 0.71875-0.71875 0.71875s-0.71876-0.32423-0.71876-0.71875c0-0.39844 0.32032-0.72344 0.71876-0.72344zm3.6016 0c0.39455 0 0.71875 0.325 0.71875 0.72344 0 0.39452-0.32421 0.71875-0.71875 0.71875-0.39843 0-0.72188-0.32423-0.72188-0.71875 0-0.39844 0.32345-0.72344 0.72188-0.72344zm3.5984 0c0.39844 0 0.72188 0.325 0.72188 0.72344 0 0.39452-0.32344 0.71875-0.72188 0.71875s-0.71876-0.32423-0.71876-0.71875c0-0.39844 0.32032-0.72344 0.71876-0.72344z" fill-rule="evenodd" stroke="#000" stroke-linecap="round" stroke-linejoin="round" stroke-miterlimit="10" stroke-width=".12"/>
</svg>
