<?xml version="1.0" encoding="UTF-8"?>
<svg width="82.081pt" height="26.522pt" version="1.1" viewBox="0 0 82.081 26.522" xmlns="http://www.w3.org/2000/svg" xmlns:cc="http://creativecommons.org/ns#" xmlns:dc="http://purl.org/dc/elements/1.1/" xmlns:rdf="http://www.w3.org/1999/02/22-rdf-syntax-ns#">
<metadata>
<rdf:RDF>
<cc:Work rdf:about="">
<dc:format>image/svg+xml</dc:format>
<dc:type rdf:resource="http://purl.org/dc/dcmitype/StillImage"/>
<dc:title/>
</cc:Work>
</rdf:RDF>
</metadata>
<defs></defs>
<path transform="scale(.8)" d="m0.074219 0.074219v4.1992h6.2988v-4.1992h-6.2988zm23.398 0.89844c-0.65919 0-1.1953 0.53711-1.1953 1.2012 0 0.66406 0.53612 1.2012 1.1953 1.2012 0.37466 0 0.69584-0.18094 0.91602-0.44922h2.3848v2.0273h4.1992v-2.8516h-2.4121l-0.28125-0.29883a0.75008 0.75008 0 0 0-0.49024-0.35938 0.75008 0.75008 0 0 0-0.17383-0.027344 0.75008 0.75008 0 0 0-0.15039 0.0097656h-3.0742c-0.22014-0.27002-0.5419-0.45312-0.91797-0.45312zm62.1 0.23047v6.2988h4.2051v-6.2988h-4.2051zm12.754 0v6.2988h4.1992v-6.2988h-4.1992zm-74.854 0.37109c0.33202 0 0.60156 0.26758 0.60156 0.59961s-0.26954 0.60156-0.60156 0.60156c-0.33204 0-0.59961-0.26953-0.59961-0.60156s0.26757-0.59961 0.59961-0.59961zm-5.7715 0.30273c-0.66406 0-1.2012 0.53711-1.2012 1.2012 0 0.65918 0.53711 1.1953 1.2012 1.1953 0.65918 0 1.1973-0.53613 1.1973-1.1953 0-0.66406-0.53809-1.2012-1.1973-1.2012zm65.098 0c-0.66408 0-1.2012 0.53711-1.2012 1.2012 0 0.65918 0.5371 1.1953 1.2012 1.1953 0.66406 0 1.2012-0.53613 1.2012-1.1953 0-0.66406-0.53711-1.2012-1.2012-1.2012zm11.25 0c-0.66408 0-1.2012 0.53711-1.2012 1.2012 0 0.65918 0.5371 1.1953 1.2012 1.1953 0.66406 0 1.2012-0.53613 1.2012-1.1953 0-0.66406-0.53711-1.2012-1.2012-1.2012zm-76.348 0.59961c0.33202 0 0.60156 0.26954 0.60156 0.60156 0 0.32715-0.26954 0.5957-0.60156 0.5957s-0.59961-0.26855-0.59961-0.5957c0-0.33202 0.26758-0.60156 0.59961-0.60156zm33.824 0v0.67188h-0.94727a0.75008 0.75008 0 0 0-0.12891-0.0058594 0.75008 0.75008 0 0 0-0.14844 0.021484 0.75008 0.75008 0 0 0-0.49609 0.34961l-2.3477 2.4141h-27.734v-0.22852h-5.5469v2.0996h5.5469v-0.37305h28.004a0.75018 0.75018 0 0 0 0.091797 0 0.75008 0.75008 0 0 0 0.63086-0.36719l2.3438-2.4102h0.73242v0.67578h4.1992v-0.67578h1.4258v0.67578h4.1992v-0.67578h0.375v0.5293h4.1992v-1.9531h-1.9688a0.75008 0.75008 0 0 0-0.18945-0.064453 0.75008 0.75008 0 0 0-0.21094-0.019531 0.75008 0.75008 0 0 0-0.083985 0.0078125h-2.1211v-0.67188h-4.1992v0.67188h-1.4258v-0.67188h-4.1992zm31.273 0c0.33202 0 0.60156 0.26954 0.60156 0.60156 0 0.32715-0.26954 0.5957-0.60156 0.5957-0.33204 0-0.59961-0.26855-0.59961-0.5957 0-0.33202 0.26757-0.60156 0.59961-0.60156zm11.25 0c0.33202 0 0.60156 0.26954 0.60156 0.60156 0 0.32715-0.26954 0.5957-0.60156 0.5957-0.33204 0-0.59961-0.26855-0.59961-0.5957 0-0.33202 0.26757-0.60156 0.59961-0.60156zm-23.1 0.74805v0.22852h-1.3125a0.75008 0.75008 0 0 0-0.12695-0.0078125 0.75008 0.75008 0 0 0-0.1582 0.021484 0.75008 0.75008 0 0 0-0.40625 0.22656c-0.033333-0.0027703-0.061645-0.019531-0.095703-0.019531-0.66406 0-1.2012 0.53711-1.2012 1.2012 0 0.66406 0.53711 1.2012 1.2012 1.2012 0.63695 0 1.1441-0.49865 1.1855-1.125h0.91406v0.22656h4.1992v-0.22656h1.502v2.5586a0.75096 0.75096 0 0 0 0 0.11328 0.75008 0.75008 0 0 0 0 0.027344v2.5488h-1.502v-0.22266h-4.1992v1.9492h4.1992v-0.22656h1.502v6.6113a0.75008 0.75008 0 0 0 0.029297 0.37305 0.75008 0.75008 0 0 0 0.31641 0.42578l2.2129 2.2109a0.75008 0.75008 0 0 0 0.66602 0.35547 0.75096 0.75096 0 0 0 0.009766 0h0.81445v1.3477h1.9492v-3.0547l7.2109-7.1406h3.8789l1.2852 1.2852v1.1855h-0.30078v5.5527h2.0996v-5.5527h-0.29883v-1.457a0.75096 0.75096 0 0 0 0-0.041016 0.75008 0.75008 0 0 0 0-0.033203 0.75096 0.75096 0 0 0-0.001954-0.011719 0.75008 0.75008 0 0 0-0.29102-0.56055l-1.5176-1.5176a0.75008 0.75008 0 0 0-0.44922-0.32617 0.75008 0.75008 0 0 0-0.048828-0.011718 0.75008 0.75008 0 0 0-0.17188-0.021485 0.75008 0.75008 0 0 0-0.11914 0.009766h-4.2656a0.75008 0.75008 0 0 0-0.11719-0.007813 0.75008 0.75008 0 0 0-0.15625 0.021485 0.75008 0.75008 0 0 0-0.49414 0.33398l-7.2188 7.1484h-0.97266v1.3516h-0.50977l-2.041-2.0391v-6.873a0.75008 0.75008 0 0 0 0-0.089844v-3.2871l0.53906-0.53906h0.66406v0.67578h4.1992v-2.8457h-4.1992v0.67188h-0.87305a0.75008 0.75008 0 0 0-0.11719-0.0078125 0.75008 0.75008 0 0 0-0.16602 0.025391 0.75008 0.75008 0 0 0-0.046874 0.0097656v-1.4082a0.75009 0.75009 0 0 0 0-0.042969 0.75008 0.75008 0 0 0 0-0.03125 0.75009 0.75009 0 0 0-0.001954-0.0097656 0.75008 0.75008 0 0 0-0.30273-0.57422 0.75008 0.75008 0 0 0-0.50781-0.34766 0.75008 0.75008 0 0 0-0.16797-0.021484 0.75008 0.75008 0 0 0-0.12305 0.011719h-1.8965v-0.22852h-4.1992zm-2.0996 1.0488c0.33204 0 0.59961 0.26953 0.59961 0.60156s-0.26757 0.59961-0.59961 0.59961c-0.33204 0-0.60156-0.26758-0.60156-0.59961s0.26952-0.60156 0.60156-0.60156zm2.0996 2.3242v1.9531h4.1992v-1.9531h-4.1992zm-44.176 1.8027v0.67773h-9.2617a0.75008 0.75008 0 0 0-0.12695-0.0078125 0.75008 0.75008 0 0 0-0.16016 0.021484 0.75008 0.75008 0 0 0-0.30078 0.13281h-2.748v2.0996h5.5469v-0.74805h7.0508v0.67578h4.1992v-0.67578h0.52734v2.248h2.8516v-4.1992h-2.8516v0.45312h-0.52734v-0.67773h-4.1992zm11.1 0.22461v4.1992h2.7578c-0.033189 0.036908-0.058593 0.082861-0.058593 0.13672v5.5801c0 0.11719 0.098687 0.21094 0.21094 0.21094h3.7832c0.11232 0 0.21094-0.09375 0.21094-0.21094v-5.5801c0-0.11719-0.098688-0.21094-0.21094-0.21094h-3.7832c-0.022519 0-0.037924 0.018484-0.058594 0.025391v-4.1504h-2.8516zm9.0039 0c-0.66405 0-1.2012 0.53711-1.2012 1.2012 0 0.66407 0.53712 1.2012 1.2012 1.2012 0.65919 0 1.1953-0.53711 1.1953-1.2012 0-0.66406-0.53612-1.2012-1.1953-1.2012zm4.6484 0.22461v2.8516h2.4277l0.87109 0.90625v3.1426a0.75008 0.75008 0 0 0 0.074219 0.35547v2.582c0 0.034175 0.029359 0.064453 0.068359 0.064453h1.2168c0.03425 0 0.068359-0.030278 0.068359-0.064453v-2.5918a0.75008 0.75008 0 0 0 0.072266-0.3457v-3.4473a0.75008 0.75008 0 0 0-0.28711-0.59961l-0.3125-0.32617v-2.5273h-4.1992zm5.625 0v2.8516h4.1992v-0.001953h0.375v0.22656h4.1992v-1.9492h-4.1992v0.22266h-0.375v-1.3496h-4.1992zm-10.273 0.375c0.33204 0 0.59961 0.26953 0.59961 0.60156 0 0.33203-0.26757 0.59961-0.59961 0.59961-0.33202 0-0.60156-0.26758-0.60156-0.59961 0-0.33203 0.26954-0.60156 0.60156-0.60156zm32.475 2.3242v2.8516h4.1992v-2.8516h-4.1992zm-65.176 1.2012v2.0996h5.5469v-0.29883h1.6406l0.085938 0.087891v15.586h-1.6484v-0.67188h-4.1992v2.8457h4.1992v-0.67578h2.1914a0.75008 0.75008 0 0 0 0.42187 0h2.1094v0.67578h4.2031v-2.8457h-4.2031v0.67188h-1.5742v-15.896a0.75008 0.75008 0 0 0-0.29688-0.60742l-0.30469-0.30859a0.75008 0.75008 0 0 0-0.51562-0.35156 0.75008 0.75008 0 0 0-0.16016-0.017578 0.75008 0.75008 0 0 0-0.11133 0.007812h-1.8379v-0.30078h-5.5469zm31.641 0c-0.039125 0-0.068359 0.024406-0.068359 0.058594v5.8789c0 0.034175 0.029359 0.064453 0.068359 0.064453h1.2168c0.039125 0 0.068359-0.030278 0.068359-0.064453v-5.8789c0-0.034188-0.029359-0.058594-0.068359-0.058594h-1.2168zm2.252 0c-0.039125 0-0.068359 0.024406-0.068359 0.058594v5.8789c0 0.034175 0.029359 0.064453 0.068359 0.064453h1.2148c0.03425 0 0.068359-0.030278 0.068359-0.064453v-5.8789c0-0.034188-0.034234-0.058594-0.068359-0.058594h-1.2148zm2.3242 0c-0.039125 0-0.068359 0.024406-0.068359 0.058594v5.8789c0 0.034175 0.029359 0.064453 0.068359 0.064453h1.2148c0.039125 0 0.068359-0.030278 0.068359-0.064453v-5.8789c0-0.034188-0.029359-0.058594-0.068359-0.058594h-1.2148zm2.3242 0c-0.034125 0-0.068359 0.024406-0.068359 0.058594v5.8789c0 0.034175 0.034234 0.064453 0.068359 0.064453h1.2148c0.039125 0 0.068359-0.030278 0.068359-0.064453v-5.8789c0-0.034188-0.029359-0.058594-0.068359-0.058594h-1.2148zm4.7168 0c-0.11232 0-0.21094 0.09375-0.21094 0.21094v5.5801c0 0.11719 0.098688 0.21094 0.21094 0.21094h3.7832c0.11234 0 0.21094-0.09375 0.21094-0.21094v-5.5801c0-0.11719-0.098687-0.21094-0.21094-0.21094h-3.7832zm-24.059 0.37695c-0.66406 0-1.2012 0.53712-1.2012 1.2012 0 0.65918 0.53711 1.1953 1.2012 1.1953 0.66406-2e-6 1.2012-0.53613 1.2012-1.1953 0-0.66406-0.53711-1.2012-1.2012-1.2012zm40.875 0.44922c-0.66406 0-1.2012 0.53711-1.2012 1.2012 0 0.65918 0.53711 1.1953 1.2012 1.1953s1.2012-0.53613 1.2012-1.1953c0-0.66406-0.53711-1.2012-1.2012-1.2012zm-40.875 0.15039c0.33204 0 0.60156 0.26954 0.60156 0.60156 0 0.32715-0.26952 0.5957-0.60156 0.5957-0.33202 0-0.59961-0.26855-0.59961-0.5957 0-0.33202 0.26758-0.60156 0.59961-0.60156zm40.875 0.44922c0.33204 0 0.59961 0.26953 0.59961 0.60156 0 0.33203-0.26757 0.59961-0.59961 0.59961-0.33202 0-0.60156-0.26758-0.60156-0.59961 0-0.33203 0.26954-0.60156 0.60156-0.60156zm16.947 1.123v5.5527h2.1055v-5.5527h-2.1055zm-64.574 0.078125c-0.65918 0-1.1973 0.53808-1.1973 1.1973 0 0.37466 0.18182 0.69584 0.44922 0.91602v5.6855h-1.3516v2.8516h4.2031v-2.8516h-1.3535v-5.6855c0.26882-0.22017 0.45117-0.54092 0.45117-0.91602 0-0.65918-0.53711-1.1973-1.2012-1.1973zm53.926 0c-0.65919 0-1.1973 0.53808-1.1973 1.1973 0 0.66406 0.53808 1.2012 1.1973 1.2012 0.66405 0 1.2012-0.53712 1.2012-1.2012 0-0.65918-0.53712-1.1973-1.2012-1.1973zm-53.926 0.5957c0.33202 0 0.59961 0.26953 0.59961 0.60156 0 0.33202-0.26758 0.59961-0.59961 0.59961-0.32715 0-0.5957-0.26758-0.5957-0.59961 0-0.33203 0.26855-0.60156 0.5957-0.60156zm53.926 0c0.33202 0 0.59961 0.26953 0.59961 0.60156-1e-6 0.33202-0.26758 0.59961-0.59961 0.59961-0.33204 0-0.60156-0.26758-0.60156-0.59961 0-0.33203 0.26952-0.60156 0.60156-0.60156zm-66.373 0.30274v2.0996h5.5469v-2.0996h-5.5469zm16.061 1.2754c-0.17089 0-0.3125 0.14062-0.3125 0.31641v5.6699c0 0.1709 0.14161 0.3125 0.3125 0.3125h6.2793c0.1709 0 0.30664-0.1416 0.30664-0.3125v-5.6699c0-0.17578-0.13574-0.31641-0.30664-0.31641h-6.2793zm35.248 0c-0.17089 0-0.30664 0.14062-0.30664 0.31641v5.6699c0 0.1709 0.13575 0.3125 0.30664 0.3125h6.2793c0.1709 0 0.3125-0.1416 0.3125-0.3125v-5.6699c0-0.17578-0.1416-0.31641-0.3125-0.31641h-6.2793zm21.963 1.2734v4.1992h1.9531v-4.1992h-1.9531zm-87.373 1.0508v4.1992h6.2988v-4.1992h-6.2988zm15.527 3.3008v2.8516h4.1992v-2.8516h-4.1992zm58.35 0v2.8516h4.1992v-2.8516h-4.1992zm6.5977 1.123c-0.65919 0-1.1973 0.53711-1.1973 1.2012 0 0.66406 0.53808 1.2012 1.1973 1.2012 0.041002 0 0.075298-0.019439 0.11523-0.023438l0.26367 0.26367v1.1074h-0.22852v1.3496h-3.7266a0.75008 0.75008 0 0 0-0.10938-0.00586 0.75008 0.75008 0 0 0-0.1582 0.021484 0.75008 0.75008 0 0 0-0.31055 0.13867h-2.4434v2.8457h4.1992v-1.5h2.5488v1.3535h1.9492v-4.2031h-0.22266v-1.3789a0.75096 0.75096 0 0 0 0-0.041016 0.75008 0.75008 0 0 0 0-0.035156 0.75096 0.75096 0 0 0-0.001953-0.017578 0.75008 0.75008 0 0 0-0.003906-0.056641 0.75096 0.75096 0 0 0-0.001953-0.005859 0.75008 0.75008 0 0 0-0.28125-0.48828l-0.41016-0.41016c0.003999-0.039938 0.023438-0.074231 0.023438-0.11523 0-0.66406-0.53712-1.2012-1.2012-1.2012zm4.502 0c-0.66408 0-1.2012 0.53711-1.2012 1.2012 0 0.37564 0.18168 0.69781 0.45117 0.91797v1.6309h-0.22656v4.2031h1.9531v-4.2031h-0.22656v-1.6328c0.26881-0.22017 0.45117-0.54093 0.45117-0.91602 0-0.66406-0.53711-1.2012-1.2012-1.2012zm4.502 0c-0.66406 0-1.2012 0.53711-1.2012 1.2012 0 0.041003 0.019439 0.075296 0.023438 0.11523l-0.42188 0.41992a0.75008 0.75008 0 0 0-0.25977 0.42578 0.75096 0.75096 0 0 0-0.009765 0.039062 0.75008 0.75008 0 0 0 0 0.001953 0.75008 0.75008 0 0 0 0 0.001953 0.75096 0.75096 0 0 0-0.007813 0.17188v1.373h-0.22852v4.2031h1.9531v-4.2031h-0.22461v-1.1113l0.25977-0.25977c0.040412 0.004096 0.075683 0.023438 0.11719 0.023438 0.65918 0 1.1953-0.53712 1.1953-1.2012 0-0.66406-0.53614-1.2012-1.1953-1.2012zm-9.0039 0.59961c0.33202-1e-6 0.59961 0.26953 0.59961 0.60156-1e-6 0.33203-0.26758 0.59961-0.59961 0.59961-0.33204 0-0.60156-0.26758-0.60156-0.59961s0.26952-0.60156 0.60156-0.60156zm4.502 0c0.33202-1e-6 0.59961 0.26953 0.59961 0.60156 0 0.33203-0.26758 0.59961-0.59961 0.59961-0.33204 0-0.60156-0.26758-0.60156-0.59961s0.26952-0.60156 0.60156-0.60156zm4.502 0c0.32715-1e-6 0.5957 0.26953 0.5957 0.60156 0 0.33203-0.26855 0.59961-0.5957 0.59961-0.33202 0-0.60156-0.26758-0.60156-0.59961s0.26954-0.60156 0.60156-0.60156zm-59.283 0.37695c-0.19044 0-0.3457 0.1416-0.3457 0.3125v7.1777c0 0.1709 0.15527 0.3125 0.3457 0.3125h6.2109c0.19042 0 0.3418-0.1416 0.3418-0.3125v-7.1777c0-0.1709-0.15137-0.3125-0.3418-0.3125h-6.2109zm35.25 0c-0.19042 0-0.3418 0.1416-0.3418 0.3125v7.1777c0 0.1709 0.15137 0.3125 0.3418 0.3125h6.2109c0.19044 0 0.3457-0.1416 0.3457-0.3125v-7.1777c0-0.1709-0.15527-0.3125-0.3457-0.3125h-6.2109zm-52.32 1.2734c-0.66406 0-1.2012 0.53711-1.2012 1.2012s0.53711 1.2012 1.2012 1.2012c0.66406 0 1.2012-0.53711 1.2012-1.2012s-0.53711-1.2012-1.2012-1.2012zm0 0.60156c0.33202 0 0.60156 0.26758 0.60156 0.59961 0 0.33203-0.26954 0.60156-0.60156 0.60156-0.33204 1e-6 -0.59961-0.26953-0.59961-0.60156s0.26757-0.59961 0.59961-0.59961z" stroke="#000" stroke-linecap="round" stroke-linejoin="round" stroke-miterlimit="10" stroke-width=".15"/>
</svg>
